<?xml version="1.0" encoding="UTF-8" standalone="no"?>
<svg
   xmlns:dc="http://purl.org/dc/elements/1.1/"
   xmlns:cc="http://creativecommons.org/ns#"
   xmlns:rdf="http://www.w3.org/1999/02/22-rdf-syntax-ns#"
   xmlns:svg="http://www.w3.org/2000/svg"
   xmlns="http://www.w3.org/2000/svg"
   xmlns:sodipodi="http://sodipodi.sourceforge.net/DTD/sodipodi-0.dtd"
   xmlns:inkscape="http://www.inkscape.org/namespaces/inkscape"
   version="1.1"
   width="1024"
   height="1536"
   id="svg212"
   sodipodi:docname="capybara.svg"
   inkscape:version="0.92.4 (5da689c313, 2019-01-14)">
  <metadata
     id="metadata218">
    <rdf:RDF>
      <cc:Work
         rdf:about="">
        <dc:format>image/svg+xml</dc:format>
        <dc:type
           rdf:resource="http://purl.org/dc/dcmitype/StillImage" />
        <dc:title></dc:title>
      </cc:Work>
    </rdf:RDF>
  </metadata>
  <defs
     id="defs216" />
  <sodipodi:namedview
     pagecolor="#ffffff"
     bordercolor="#666666"
     borderopacity="1"
     objecttolerance="10"
     gridtolerance="10"
     guidetolerance="10"
     inkscape:pageopacity="0"
     inkscape:pageshadow="2"
     inkscape:window-width="1920"
     inkscape:window-height="991"
     id="namedview214"
     showgrid="false"
     inkscape:zoom="0.43457604"
     inkscape:cx="668.88164"
     inkscape:cy="746.08133"
     inkscape:window-x="-9"
     inkscape:window-y="-9"
     inkscape:window-maximized="1"
     inkscape:current-layer="svg212" />
  <path
     d="M0 0 C7.55357256 4.52869581 14.1290077 9.90818159 20.4453125 16.046875 C21.10660156 16.64628906 21.76789063 17.24570313 22.44921875 17.86328125 C32.56942072 27.32924795 40.85544797 39.90566327 47.4453125 52.046875 C47.4453125 52.706875 47.4453125 53.366875 47.4453125 54.046875 C48.39148438 53.67175781 49.33765625 53.29664063 50.3125 52.91015625 C85.50198946 39.18900771 122.78175624 34.46393624 160.3918457 34.65576172 C164.14245682 34.67191654 167.89199807 34.65575103 171.64257812 34.63671875 C206.71896891 34.60590775 245.25550505 39.19713575 277.4453125 54.046875 C277.69023438 53.35980469 277.93515625 52.67273438 278.1875 51.96484375 C279.66446425 48.53847016 281.54333737 45.47733716 283.5703125 42.359375 C283.96847168 41.74433105 284.36663086 41.12928711 284.77685547 40.49560547 C288.34100369 35.06809059 292.24493518 29.99917172 296.4453125 25.046875 C297.32316406 23.98533203 297.32316406 23.98533203 298.21875 22.90234375 C302.25614261 18.12506698 306.59506093 13.99030424 311.4453125 10.046875 C312.33089844 9.31210938 313.21648438 8.57734375 314.12890625 7.8203125 C328.17499497 -3.33448306 341.76419862 -7.0667011 359.4453125 -5.953125 C370.09035986 -4.26252528 378.26652371 3.62728084 384.4453125 12.046875 C395.69847313 31.72532947 396.05004848 56.55079924 390.4453125 78.046875 C384.5813713 99.07544071 373.80358796 115.68859954 358.4453125 131.046875 C359.13568604 131.21292236 359.82605957 131.37896973 360.53735352 131.55004883 C363.69574137 132.31349581 366.85175555 133.08635121 370.0078125 133.859375 C371.09384766 134.12041016 372.17988281 134.38144531 373.29882812 134.65039062 C387.71311396 138.19919656 387.71311396 138.19919656 391.3203125 142.046875 C394.44638585 147.60433873 393.97988368 153.86112279 393.4453125 160.046875 C391.31384436 164.73610492 388.13969843 167.32839422 384.03125 170.26171875 C379.88283108 174.93124448 379.66721938 183.01275248 378.7578125 188.984375 C378.61537109 189.83966797 378.47292969 190.69496094 378.32617188 191.57617188 C378.19662109 192.42115234 378.06707031 193.26613281 377.93359375 194.13671875 C377.81540283 194.88816162 377.69721191 195.63960449 377.57543945 196.41381836 C377.26630659 202.66897403 378.64356618 208.25282928 380.59765625 214.1484375 C381.04434489 215.5195639 381.49061449 216.89082687 381.93652344 218.26220703 C382.17205933 218.97878479 382.40759521 219.69536255 382.65026855 220.43365479 C396.8501138 263.8199675 410.56135608 311.16401194 411.4453125 357.046875 C411.47109375 358.05218262 411.496875 359.05749023 411.5234375 360.09326172 C411.8555567 374.35985691 411.81120716 388.12967175 408.4453125 402.046875 C408.24663574 402.87348633 408.04795898 403.70009766 407.84326172 404.55175781 C401.77964729 428.99698091 391.2116604 450.21148843 374.4453125 469.046875 C376.07559524 473.45373302 378.20961095 477.49033791 380.4453125 481.609375 C384.40989448 488.95677965 384.40989448 488.95677965 385.22338867 491.02612305 C386.93894453 493.86321712 389.09047976 495.08738211 391.87109375 496.875 C392.41452927 497.22769958 392.95796478 497.58039917 393.51786804 497.94378662 C395.25891684 499.07045449 397.00816627 500.18361757 398.7578125 501.296875 C399.89181841 502.02910863 401.02528722 502.76217478 402.15820312 503.49609375 C413.65943245 510.92364343 425.3680252 518.01672906 437.07495117 525.11376953 C440.13384025 526.96818627 443.19187409 528.82401258 446.25 530.6796875 C446.86377502 531.05208557 447.47755005 531.42448364 448.10992432 531.8081665 C454.64365842 535.77293683 461.17107751 539.74805929 467.69824219 543.72363281 C473.0098263 546.95797838 478.32387863 550.18821261 483.640625 553.4140625 C484.25778381 553.7885553 484.87494263 554.1630481 485.51080322 554.54888916 C488.51272756 556.37038383 491.51492178 558.19143103 494.51757812 560.01171875 C496.72588217 561.3514146 498.93317728 562.6927751 501.1394043 564.03588867 C503.41671962 565.42118121 505.69661831 566.80137502 507.97973633 568.17700195 C509.13372941 568.87694592 510.28762268 569.57705448 511.44140625 570.27734375 C512.46419678 570.89504639 513.4869873 571.51274902 514.54077148 572.14916992 C529.18028801 581.714015 534.96304235 593.38794842 538.4696312 610.07265854 C538.9029862 612.17240086 539.32928419 614.27347511 539.75390625 616.375 C539.90435331 617.11196358 540.05480038 617.84892715 540.20980644 618.60822296 C543.58319506 635.16992053 546.41110213 651.81359568 549.13129425 668.49303055 C549.64521433 671.63761101 550.16414309 674.78135741 550.68302536 677.92512226 C552.28470493 687.63006255 553.86998805 697.33762439 555.4453125 707.046875 C555.63409973 708.21027405 555.82288696 709.3736731 556.01739502 710.57232666 C557.04516851 716.9164102 558.06433716 723.26179805 559.0703125 729.609375 C559.1846463 730.32967896 559.2989801 731.04998291 559.41677856 731.79211426 C565.65085541 771.21129228 565.65085541 771.21129228 559.4453125 781.046875 C557.1328125 783.796875 557.1328125 783.796875 554.4453125 786.046875 C553.4965625 786.85125 552.5478125 787.655625 551.5703125 788.484375 C487.52163775 831.63013498 362.16883098 823.41951627 288.21580505 826.52209473 C279.28974345 826.90310679 270.37212976 827.37557647 261.453125 827.89453125 C197.38543967 831.54743704 133.29165619 830.87299627 69.1953125 828.234375 C67.67343637 828.17208269 67.67343637 828.17208269 66.12081528 828.10853195 C43.12088773 827.16137961 20.14102312 825.96949679 -2.83203125 824.5078125 C-3.7998629 824.44644293 -4.76769455 824.38507336 -5.76485443 824.3218441 C-20.89345905 823.35511754 -35.98857495 822.13023919 -51.08203125 820.72265625 C-56.68601609 820.20378191 -62.28947681 819.7666896 -67.90405273 819.38208008 C-209.35538298 809.55479085 -209.35538298 809.55479085 -233.1171875 783.484375 C-237.57801298 777.96459985 -237.92077386 772.55492621 -237.88671875 765.71484375 C-237.88283646 764.79084274 -237.87895416 763.86684174 -237.87495422 762.9148407 C-237.69236048 751.91450507 -235.99969976 741.19900826 -234.2421875 730.359375 C-233.88449226 728.08543168 -233.52774928 725.81133839 -233.171875 723.53710938 C-232.19897257 717.35894818 -231.20156533 711.18497585 -230.19769287 705.01177979 C-229.53372418 700.9247322 -228.87916047 696.8362011 -228.22509766 692.74755859 C-219.33837952 637.26399208 -219.33837952 637.26399208 -214.1171875 613.046875 C-213.88394775 611.95173584 -213.88394775 611.95173584 -213.64599609 610.83447266 C-209.18271842 590.10012687 -209.18271842 590.10012687 -202.4921875 582.921875 C-201.82058594 582.17679688 -201.14898437 581.43171875 -200.45703125 580.6640625 C-192.60223224 573.58100014 -183.6772823 568.16290374 -174.53414917 562.92285156 C-171.31800711 561.0784933 -168.11443213 559.21253027 -164.91015625 557.34765625 C-164.27338455 556.97750397 -163.63661285 556.60735168 -162.98054504 556.22598267 C-157.59538736 553.08816739 -152.27818661 549.84911603 -146.9921875 546.546875 C-139.58082556 541.91759519 -132.13618587 537.3474476 -124.66146851 532.82122803 C-121.07005715 530.64579603 -117.4814055 528.46581351 -113.89234924 526.28649902 C-110.97053456 524.51254099 -108.04799656 522.73980675 -105.12353516 520.97021484 C-98.59940105 517.01783092 -92.10896582 513.01772999 -85.64892578 508.96142578 C-82.60100061 507.0755311 -79.51794787 505.26138839 -76.42578125 503.44921875 C-63.27897672 495.47615669 -56.12526752 487.33171102 -49.98828125 473.19067383 C-49.42735505 470.41731069 -50.0433436 469.38970064 -51.5546875 467.046875 C-53.0300186 465.13178175 -54.53396281 463.23862497 -56.0546875 461.359375 C-68.70449985 445.19212854 -77.08081403 427.01121094 -82.4296875 407.234375 C-82.62087158 406.53135254 -82.81205566 405.82833008 -83.0090332 405.10400391 C-86.05461802 392.99078822 -86.947027 380.62321413 -86.9296875 368.171875 C-86.92914368 367.49489563 -86.92859985 366.81791626 -86.92803955 366.12042236 C-86.75040246 317.0797959 -73.16831581 268.02503529 -58.48974609 221.58422852 C-58.24231659 220.8013295 -57.99488708 220.01843048 -57.73995972 219.21180725 C-57.28140851 217.76632314 -56.82017512 216.32168545 -56.35549927 214.87815857 C-55.73704716 212.93938166 -55.13931042 210.99610643 -54.5546875 209.046875 C-54.35006393 208.37453323 -54.14544037 207.70219147 -53.93461609 207.00947571 C-52.67644412 202.53013487 -52.46513771 199.04053518 -53.19921875 194.46484375 C-53.38162109 193.28599609 -53.56402344 192.10714844 -53.75195312 190.89257812 C-54.05649414 189.08176758 -54.05649414 189.08176758 -54.3671875 187.234375 C-54.55861328 186.00783203 -54.75003906 184.78128906 -54.94726562 183.51757812 C-55.9071881 177.20096072 -55.9071881 177.20096072 -57.5546875 171.046875 C-58.86604486 170.33795745 -60.20339512 169.67634393 -61.5546875 169.046875 C-65.90282082 165.83880103 -68.27167223 162.79932054 -69.14453125 157.39453125 C-69.44122038 145.32521762 -69.44122038 145.32521762 -64.5546875 140.046875 C-58.04692479 136.43826568 -50.63352805 134.90559782 -43.4296875 133.296875 C-42.47320312 133.07644531 -41.51671875 132.85601562 -40.53125 132.62890625 C-38.20726409 132.09438949 -35.88189036 131.56717153 -33.5546875 131.046875 C-34.08835937 130.55960938 -34.62203125 130.07234375 -35.171875 129.5703125 C-55.45124618 110.273333 -67.86763018 83.33793395 -68.7578125 55.3203125 C-69.07574502 35.55250784 -66.10027776 17.89543277 -51.8203125 3.10546875 C-37.72480232 -9.70200343 -16.0526134 -9.09619216 0 0 Z "
     fill="#072033"
     transform="translate(349.5546875,219.953125)"
     id="path4" />
  <path
     d="M0 0 C2.0688392 0.02361744 4.13638169 0.02053075 6.20532227 0.01391602 C28.19223381 0.05349789 28.19223381 0.05349789 33.38916016 4.08203125 C35.35248865 6.61414635 36.06367451 8.53609304 36.84790039 11.63305664 C37.11957031 12.66591797 37.39124023 13.6987793 37.67114258 14.76293945 C37.94861328 15.85960937 38.22608398 16.9562793 38.51196289 18.08618164 C44.53159079 40.52065034 52.86108798 62.43061067 68.13696289 80.33618164 C68.6487207 80.99360352 69.16047852 81.65102539 69.68774414 82.32836914 C78.17580184 92.19820368 92.71385635 96.59838292 105.13696289 98.33618164 C106.4015332 98.51793945 107.66610352 98.69969727 108.96899414 98.88696289 C116.40780025 99.67596272 123.91433095 99.57967804 131.38696289 99.58618164 C132.18831665 99.58718872 132.98967041 99.5881958 133.81530762 99.5892334 C146.4771629 99.57848104 158.70856903 98.9321257 171.13696289 96.33618164 C171.87269531 96.19164551 172.60842773 96.04710937 173.36645508 95.89819336 C185.85790916 93.39491262 196.28717673 89.99090476 203.89477539 79.28930664 C205.16443738 77.36676738 205.16443738 77.36676738 206.13696289 75.33618164 C206.79696289 75.33618164 207.45696289 75.33618164 208.13696289 75.33618164 C225.58918549 140.86034393 225.58918549 140.86034393 230.13696289 174.33618164 C230.24153809 175.09817871 230.34611328 175.86017578 230.45385742 176.64526367 C231.35825936 184.2671555 231.35818145 191.92756999 231.37719727 199.5925293 C231.38685838 201.93583298 231.41795244 204.27824042 231.44946289 206.62133789 C231.67830162 239.22002678 219.20112915 269.81021642 196.68579102 293.32421875 C163.65924067 326.71905582 119.843768 343.68770572 75.13696289 355.33618164 C73.68217529 355.72507568 73.68217529 355.72507568 72.19799805 356.12182617 C64.89706462 358.02574112 57.59730353 359.35364889 50.13696289 360.46118164 C49.05157227 360.63004883 47.96618164 360.79891602 46.84790039 360.97290039 C14.16421708 365.9261555 -19.5096873 364.82088206 -51.86303711 358.33618164 C-52.96566895 358.12751465 -54.06830078 357.91884766 -55.2043457 357.70385742 C-102.18655754 348.6972019 -149.79468624 329.459469 -184.86303711 296.33618164 C-185.68416992 295.57950195 -186.50530273 294.82282227 -187.35131836 294.04321289 C-208.54675483 273.83667703 -221.99005378 244.00604853 -222.98608398 214.71801758 C-223.39931887 196.39093232 -223.14750032 178.41623534 -219.86303711 160.33618164 C-219.65855957 159.15975098 -219.45408203 157.98332031 -219.2434082 156.77124023 C-214.38701837 129.24473528 -207.10637084 102.31331053 -199.86303711 75.33618164 C-199.20303711 75.33618164 -198.54303711 75.33618164 -197.86303711 75.33618164 C-196.74375758 77.00005685 -195.66862017 78.69368552 -194.61303711 80.39868164 C-186.56682338 91.65759222 -172.84419071 94.90597788 -159.86303711 97.33618164 C-158.67581055 97.56176758 -157.48858398 97.78735352 -156.26538086 98.01977539 C-146.1380789 99.53834704 -135.95773188 99.54365826 -125.73803711 99.58618164 C-125.01755188 99.59153931 -124.29706665 99.59689697 -123.55474854 99.60241699 C-102.14333165 99.72297609 -78.18936554 97.84561889 -61.81225586 82.46508789 C-43.01650817 61.93666606 -33.32042716 32.85760507 -26.86303711 6.33618164 C-26.53303711 5.34618164 -26.20303711 4.35618164 -25.86303711 3.33618164 C-17.7412132 -0.18782979 -8.69615925 -0.10573774 0 0 Z "
     fill="#D07B23"
     transform="translate(507.863037109375,384.663818359375)"
     id="path6" />
  <path
     d="M0 0 C2.0688392 0.02361744 4.13638169 0.02053075 6.20532227 0.01391602 C28.19223381 0.05349789 28.19223381 0.05349789 33.38916016 4.08203125 C35.35248865 6.61414635 36.06367451 8.53609304 36.84790039 11.63305664 C37.11957031 12.66591797 37.39124023 13.6987793 37.67114258 14.76293945 C37.94861328 15.85960937 38.22608398 16.9562793 38.51196289 18.08618164 C44.53159079 40.52065034 52.86108798 62.43061067 68.13696289 80.33618164 C68.6487207 80.99360352 69.16047852 81.65102539 69.68774414 82.32836914 C74.43899581 87.85308038 81.02112732 90.58053156 87.49243164 93.63696289 C88.12971191 93.93812012 88.76699219 94.23927734 89.42358398 94.54956055 C90.78695923 95.17549316 92.17186555 95.75447563 93.56274414 96.31665039 C95.7217131 97.71489084 95.59193365 98.86254517 96.13696289 101.33618164 C97.73312349 106.61203115 99.64897225 111.67622816 101.8894043 116.70947266 C109.51856309 133.93016074 114.24640187 151.4616102 117.51196289 169.96118164 C117.63951965 170.67984406 117.76707642 171.39850647 117.89849854 172.13894653 C123.7488025 205.53001263 126.58361074 247.11411879 106.19946289 276.27368164 C104.87023794 277.98089711 103.51783007 279.67045974 102.13696289 281.33618164 C101.59426758 282.00391602 101.05157227 282.67165039 100.49243164 283.35961914 C94.32795027 290.2290412 85.11088705 294.50476855 76.13696289 296.33618164 C73.19946289 296.46118164 73.19946289 296.46118164 71.13696289 296.33618164 C70.88946289 297.03743164 70.64196289 297.73868164 70.38696289 298.46118164 C68.95453194 301.75577283 67.23793076 304.41817071 65.13696289 307.33618164 C64.77344727 307.87114258 64.40993164 308.40610352 64.03540039 308.95727539 C53.98526432 322.30607576 36.47346725 327.64048655 20.69433594 329.93701172 C14.57219851 330.62397176 8.4804062 330.71906377 2.32446289 330.71118164 C0.34978027 330.70876465 0.34978027 330.70876465 -1.66479492 330.70629883 C-11.35719164 330.58415595 -19.73261909 329.61581865 -28.86303711 326.33618164 C-30.20688477 325.92045898 -30.20688477 325.92045898 -31.57788086 325.49633789 C-45.29525699 320.79385666 -55.91103537 310.89191811 -62.86303711 298.33618164 C-62.86303711 297.67618164 -62.86303711 297.01618164 -62.86303711 296.33618164 C-63.59006836 296.26141602 -64.31709961 296.18665039 -65.06616211 296.10961914 C-77.12297707 294.53295872 -87.96927696 289.70018565 -95.66381836 280.08618164 C-110.55845664 259.6738294 -113.29575854 236.59318844 -113.23803711 212.02368164 C-113.23749329 211.14800537 -113.23694946 210.2723291 -113.23638916 209.37011719 C-113.19371893 194.35702257 -112.05308869 180.04708615 -108.86303711 165.33618164 C-108.65404785 164.338125 -108.44505859 163.34006836 -108.22973633 162.31176758 C-105.30312908 148.63672937 -101.04545108 135.7170209 -95.91381836 122.71899414 C-94.20543583 118.36342361 -92.78785925 113.98301621 -91.52026367 109.48046875 C-90.6255475 106.5613409 -89.41193523 103.9625741 -87.86303711 101.33618164 C-86.87303711 100.84118164 -86.87303711 100.84118164 -85.86303711 100.33618164 C-86.35803711 99.34618164 -86.35803711 99.34618164 -86.86303711 98.33618164 C-88.88766966 97.68404872 -88.88766966 97.68404872 -90.86303711 97.33618164 C-89.82405273 96.97266602 -88.78506836 96.60915039 -87.71459961 96.23461914 C-63.59782447 87.62520842 -52.3151119 72.51415618 -41.5390625 49.80249023 C-35.50982451 36.58658953 -31.2161097 22.656056 -27.49169922 8.63549805 C-27.00432634 6.85294358 -26.44741992 5.08933008 -25.86303711 3.33618164 C-17.7412132 -0.18782979 -8.69615925 -0.10573774 0 0 Z "
     fill="#D07B23"
     transform="translate(507.863037109375,384.663818359375)"
     id="path8" />
  <path
     d="M0 0 C4.0170911 4.49243135 6.44096792 9.50730255 9.0625 14.875 C9.54509277 15.85186768 10.02768555 16.82873535 10.52490234 17.83520508 C14.22272919 25.34562719 17.84344697 32.89276634 21.44042969 40.4519043 C25.85233981 49.7192376 30.3286339 58.95483736 34.8125 68.1875 C35.1749884 68.9346225 35.53747681 69.681745 35.91094971 70.45150757 C36.96717315 72.62821947 38.02436288 74.80445861 39.08203125 76.98046875 C39.41686523 77.66997116 39.75169922 78.35947357 40.09667969 79.06987 C42.66040996 84.33606515 45.29583577 89.56236434 47.9753418 94.77075195 C49 97 49 97 49 99 C48.32235596 99.36125977 47.64471191 99.72251953 46.9465332 100.09472656 C34.93778965 106.50559952 22.95076109 112.94321147 11.125 119.6875 C10.25915283 120.17959961 9.39330566 120.67169922 8.5012207 121.17871094 C7.699021 121.63922852 6.89682129 122.09974609 6.0703125 122.57421875 C5.37695801 122.97213623 4.68360352 123.37005371 3.96923828 123.7800293 C1.88054467 125.07400425 -0.05635395 126.49863537 -2 128 C-1.40050537 128.59425781 -0.80101074 129.18851563 -0.18334961 129.80078125 C2.07574527 132.04266107 4.33244873 134.28691531 6.58764648 136.53271484 C7.55742273 137.49751459 8.5281007 138.46140895 9.49975586 139.42431641 C14.69253241 144.57156578 19.79724327 149.72625579 24.51147461 155.31933594 C26.078389 157.08850744 27.76060039 158.65186012 29.5 160.25 C30.325 161.1575 31.15 162.065 32 163 C31.68863661 166.43674682 29.92120007 169.11456916 28.19140625 172.04296875 C27.61414795 173.02595947 27.03688965 174.0089502 26.44213867 175.02172852 C25.82185791 176.06643311 25.20157715 177.1111377 24.5625 178.1875 C23.61177612 179.80192993 23.61177612 179.80192993 22.6418457 181.44897461 C21.36061868 183.62377202 20.07735252 185.79736948 18.79199219 187.96972656 C17.24341325 190.5883862 15.70122098 193.21056486 14.1640625 195.8359375 C10.01421827 202.92158431 5.82342041 209.98113491 1.58666992 217.01513672 C-1.10062819 221.48300775 -3.75327827 225.97046252 -6.3972168 230.46411133 C-12.37931455 240.62866585 -18.4606367 250.72925501 -24.59729004 260.80090332 C-29.90741679 269.51812957 -35.13771588 278.27854421 -40.30175781 287.08325195 C-44.72502445 294.59846321 -49.30528465 302.01151842 -53.95214844 309.39038086 C-54.72606934 310.62606812 -54.72606934 310.62606812 -55.515625 311.88671875 C-56.20060059 312.97279419 -56.20060059 312.97279419 -56.89941406 314.08081055 C-58.14558729 316.10739663 -58.14558729 316.10739663 -59 319 C-59.98932022 319.05304543 -59.98932022 319.05304543 -60.99862671 319.10716248 C-67.84410712 319.47507029 -74.6892316 319.84912698 -81.53417969 320.22680664 C-84.09105915 320.3670677 -86.64802604 320.50574419 -89.20507812 320.64282227 C-92.87393784 320.83977462 -96.54244859 321.04236576 -100.2109375 321.24609375 C-101.35992523 321.3065538 -102.50891296 321.36701385 -103.69271851 321.42930603 C-105.28414169 321.51928612 -105.28414169 321.51928612 -106.90771484 321.61108398 C-107.84481293 321.66215805 -108.78191101 321.71323212 -109.74740601 321.76585388 C-112.03307476 321.86972742 -112.03307476 321.86972742 -114 323 C-115.87379605 323.07033769 -117.75001102 323.0843022 -119.625 323.0625 C-120.62789062 323.05347656 -121.63078125 323.04445313 -122.6640625 323.03515625 C-123.82035156 323.01775391 -123.82035156 323.01775391 -125 323 C-119.72416631 310.1968276 -114.34724247 297.44351717 -108.8125 284.75 C-96.71928059 256.97601459 -85.23931433 228.9503966 -74.10009766 200.78149414 C-72.88533986 197.71009256 -71.66918743 194.63924463 -70.453125 191.56835938 C-56.07421688 155.23851386 -42.10613692 118.82405721 -29.109375 81.9765625 C-15.62102956 43.74425027 -15.62102956 43.74425027 -9.70385742 28.26293945 C-7.18615758 21.63179672 -4.99266989 14.94307177 -2.97265625 8.14453125 C-2.11031712 5.35664773 -1.12924667 2.68892368 0 0 Z "
     fill="#0A3B62"
     transform="translate(714,725)"
     id="path10" />
  <path
     d="M0 0 C2.66770804 2.66770804 3.37891141 5.68051326 4.50390625 9.19140625 C4.74291153 9.91964096 4.98191681 10.64787567 5.22816467 11.3981781 C5.74261798 12.96655991 6.25454525 14.53577208 6.76422119 16.10571289 C8.10858052 20.24312032 9.47407971 24.37352405 10.83984375 28.50390625 C11.24746948 29.73797714 11.24746948 29.73797714 11.66333008 30.99697876 C14.87520617 40.69016972 18.35601222 50.28098775 21.86279297 59.87060547 C24.00183164 65.75686517 26.0893644 71.66156704 28.1875 77.5625 C31.20874027 86.04558783 34.28686217 94.49975054 37.48632812 102.91699219 C38.83136904 106.50506743 40.09115165 110.11879853 41.33796692 113.74198914 C45.21912897 125.00373765 49.44461826 136.10694004 53.8125 147.1875 C54.57791188 149.13589276 55.3432916 151.08429816 56.10864258 153.03271484 C71.57661745 192.35302135 87.1552648 231.63943982 103.56445312 270.57763672 C106.03304548 276.46279447 108.43868019 282.37334345 110.84375 288.28466797 C114.14202855 296.37972182 117.51461092 304.44349738 120.90356445 312.50097656 C121.30792725 313.46616211 121.71229004 314.43134766 122.12890625 315.42578125 C122.49056885 316.28598877 122.85223145 317.14619629 123.22485352 318.0324707 C124 320 124 320 124 321 C96.87645779 322.15003455 70.09359605 321.66971924 43 320 C43 319.67 43 319.34 43 319 C48.28 318.34 53.56 317.68 59 317 C57.1746875 313.968125 57.1746875 313.968125 55.3125 310.875 C49.71951538 301.56454144 44.20398886 292.20847193 38.68505859 282.85400391 C37.0486547 280.08240705 35.40961529 277.3123892 33.76953125 274.54296875 C28.77531758 266.1071467 23.79704897 257.66303941 18.86962891 249.18798828 C8.52780153 231.40166608 -2.08595191 213.78247464 -12.76773071 196.19885254 C-13.86149542 194.39724424 -14.95377705 192.5947449 -16.0456543 190.79199219 C-19.03731785 185.85546041 -22.03477008 180.92454031 -25.109375 176.0390625 C-25.76317139 174.988396 -25.76317139 174.988396 -26.43017578 173.91650391 C-27.52024304 172.16803068 -28.62275443 170.42733131 -29.7265625 168.6875 C-31 166 -31 166 -30.77502441 164.04776001 C-29.851603 161.60790726 -28.73045218 160.37480557 -26.87304688 158.54833984 C-26.21566528 157.89441254 -25.55828369 157.24048523 -24.88098145 156.56674194 C-23.81067688 155.52436874 -23.81067688 155.52436874 -22.71875 154.4609375 C-21.62572571 153.37783798 -21.62572571 153.37783798 -20.51062012 152.27285767 C-18.18072362 149.96637988 -15.84091117 147.67029341 -13.5 145.375 C-11.16084211 143.0708695 -8.82381826 140.7646309 -6.48937988 138.45571899 C-5.03573039 137.01908593 -3.57901664 135.58554575 -2.11901855 134.15536499 C-1.46163696 133.507742 -0.80425537 132.86011902 -0.12695312 132.19287109 C0.45405151 131.62313568 1.03505615 131.05340027 1.63366699 130.46640015 C3.10466437 129.02612044 3.10466437 129.02612044 4 127 C3.11441406 126.72849121 2.22882813 126.45698242 1.31640625 126.17724609 C-1.76080866 125.08490729 -4.27057893 123.83673391 -7.0625 122.1640625 C-8.01447266 121.59961426 -8.96644531 121.03516602 -9.94726562 120.45361328 C-11.45836914 119.54844971 -11.45836914 119.54844971 -13 118.625 C-24.5214237 111.80572621 -36.20406387 105.33029826 -48 99 C-46.70818306 95.69262632 -45.31637206 92.4728859 -43.77734375 89.2734375 C-43.10638672 87.87641602 -43.10638672 87.87641602 -42.421875 86.45117188 C-41.68710937 84.9284668 -41.68710937 84.9284668 -40.9375 83.375 C-40.41800781 82.29541016 -39.89851563 81.21582031 -39.36328125 80.10351562 C-34.03943476 69.0534389 -28.67457543 58.02320829 -23.30737305 46.99414062 C-19.99253016 40.17988624 -16.68539028 33.36244926 -13.421875 26.5234375 C-12.88111328 25.39099609 -12.34035156 24.25855469 -11.78320312 23.09179688 C-10.80013478 21.02923181 -9.81944911 18.96552842 -8.84179688 16.90039062 C-6.09808074 11.14222349 -3.17173247 5.53434951 0 0 Z "
     fill="#0B3B62"
     transform="translate(309,725)"
     id="path12" />
  <path
     d="M0 0 C3.52758283 0.00314121 7.05430828 -0.02032275 10.58178711 -0.0456543 C35.03929198 -0.11419253 58.85244808 2.55034954 82.62670898 8.31567383 C83.7970166 8.59749512 83.7970166 8.59749512 84.9909668 8.88500977 C106.96382012 14.34174758 126.42892324 24.40902475 142.62670898 40.31567383 C143.43624023 41.10071289 144.24577148 41.88575195 145.07983398 42.69458008 C151.21874743 49.01688874 163.62670898 62.09954106 163.62670898 71.31567383 C162.31702148 71.31043701 161.00733398 71.3052002 159.65795898 71.29980469 C154.72274479 71.28148059 149.7875335 71.27014336 144.85229492 71.26074219 C142.73054496 71.25576382 140.60879833 71.24897871 138.48706055 71.24023438 C121.94299151 71.17383939 105.68085083 71.35152677 89.31420898 74.06567383 C88.25242432 74.23977783 87.19063965 74.41388184 86.09667969 74.59326172 C79.43545778 75.7292259 72.85760669 77.06446846 66.31420898 78.75317383 C65.60546631 78.93396484 64.89672363 79.11475586 64.16650391 79.30102539 C61.03430719 80.15988302 58.12226697 81.06743981 55.20881653 82.52684021 C45.94303153 87.08354417 37.46042261 87.04907857 27.37670898 86.97973633 C25.62898421 86.98311374 23.88126175 86.987974 22.13354492 86.99423218 C18.48910938 87.00156007 14.84529092 86.99103133 11.20092773 86.9675293 C6.56100324 86.93904353 1.9225254 86.95546968 -2.71734619 86.98539162 C-6.32082758 87.0035761 -9.92397358 86.99765595 -13.52746582 86.98475266 C-15.2368589 86.98144932 -16.94628379 86.98539577 -18.65563965 86.99715042 C-29.09622745 87.05321444 -36.86881201 86.07664052 -46.37329102 81.31567383 C-49.23780831 80.31438685 -52.12131552 79.50316621 -55.06079102 78.75317383 C-55.84478271 78.55046875 -56.62877441 78.34776367 -57.43652344 78.13891602 C-64.29496165 76.44239341 -71.21446237 75.19915071 -78.18579102 74.06567383 C-79.18634521 73.90252686 -80.18689941 73.73937988 -81.21777344 73.57128906 C-97.21791821 71.11445552 -113.10351776 71.19008041 -129.24829102 71.25317383 C-131.49698793 71.25819975 -133.74568594 71.26276072 -135.99438477 71.2668457 C-141.45404431 71.27776266 -146.91366245 71.29441382 -152.37329102 71.31567383 C-148.40656901 61.16678471 -142.37482125 52.59020956 -135.37329102 44.31567383 C-134.65399414 43.3952832 -134.65399414 43.3952832 -133.92016602 42.45629883 C-112.2010691 15.24501649 -74.05105118 6.6293656 -41.37329102 2.31567383 C-39.50217651 2.04968384 -39.50217651 2.04968384 -37.59326172 1.77832031 C-25.079057 0.11088948 -12.61073345 -0.02335802 0 0 Z "
     fill="#D07C23"
     transform="translate(506.373291015625,276.684326171875)"
     id="path14" />
  <path
     d="M0 0 C1.47583954 0.00025104 2.95168496 0.00581025 4.42749023 0.01586914 C5.11452026 0.01687622 5.80155029 0.0178833 6.50939941 0.0189209 C9.08500089 0.02416768 11.66050868 0.0380931 14.23608398 0.05102539 C17.3466769 0.06297508 20.45727399 0.07367752 23.56787109 0.08447266 C25.11323554 0.0899919 26.65859993 0.09552934 28.20396423 0.10108948 C29.34893875 0.10519333 30.49391327 0.10929718 31.67358398 0.11352539 C31.80466647 0.72295203 31.93574896 1.33237867 32.07080364 1.96027279 C38.55805586 32.10934457 45.11080172 62.24222954 51.84936523 92.33618164 C52.14642608 93.66332282 52.44348292 94.9904649 52.74053574 96.31760788 C55.12832109 106.98386186 57.520447 117.64914236 59.91516113 128.31384277 C61.73661012 136.42564687 63.55561715 144.53798922 65.37087059 152.65118217 C66.20829222 156.38943171 67.04933225 160.12685536 67.89045715 163.86427307 C68.39429684 166.11536188 68.89794479 168.36649361 69.40136719 170.61767578 C69.63341354 171.64406662 69.8654599 172.67045746 70.10453796 173.72795105 C70.31293304 174.66347809 70.52132812 175.59900513 70.73603821 176.56288147 C70.91826085 177.37448258 71.10048349 178.1860837 71.28822803 179.02227879 C71.67358398 181.11352539 71.67358398 181.11352539 71.67358398 184.11352539 C65.96355178 184.93052227 60.44516273 185.25758677 54.68164062 185.24291992 C53.82020447 185.24467224 52.95876831 185.24642456 52.07122803 185.24822998 C49.2420445 185.25260623 46.41292433 185.24972307 43.58374023 185.24633789 C41.59565723 185.2470127 39.6075743 185.24798419 37.61949158 185.24923706 C33.45449029 185.25070879 29.2895105 185.24857839 25.12451172 185.24389648 C19.83302351 185.23823303 14.54158642 185.24145996 9.25010014 185.24746895 C5.14124684 185.25111746 1.03240525 185.24991591 -3.07644844 185.24734116 C-5.02453175 185.24668194 -6.97261617 185.24746441 -8.92069817 185.24982071 C-20.76169341 185.26099066 -32.51459892 184.96480675 -44.32641602 184.11352539 C-41.0001902 168.15116802 -37.52992147 152.22099821 -34.04032898 136.29370499 C-33.57042504 134.14867768 -33.10078929 132.0035918 -32.63122559 129.85848999 C-28.07721431 109.05577779 -23.49375738 88.25990558 -18.85375977 67.47619629 C-17.14628913 59.82617451 -15.44163052 52.17552753 -13.73864746 44.52450562 C-13.10181316 41.66506092 -12.4636712 38.80591039 -11.82543945 35.94677734 C-11.42449662 34.14694176 -11.0237765 32.34705655 -10.62329102 30.54711914 C-10.4301532 29.67994766 -10.23701538 28.81277618 -10.0380249 27.91932678 C-9.05450183 23.48090705 -8.09656703 19.03860653 -7.17602539 14.58666992 C-6.90184784 13.26228661 -6.90184784 13.26228661 -6.62213135 11.91114807 C-6.27605116 10.2300292 -5.93340584 8.54819852 -5.59466553 6.86558533 C-4.21382663 0.14381133 -4.21382663 0.14381133 0 0 Z "
     fill="#B52B1C"
     transform="translate(498.326416015625,864.886474609375)"
     id="path16" />
  <path
     d="M0 0 C1.1096109 0.00282486 1.1096109 0.00282486 2.24163818 0.00570679 C50.74087252 0.15007697 50.74087252 0.15007697 59.75 8.5 C70.58166334 22.33856042 68.46354023 46.05952604 66.7265625 62.328125 C65.34943687 72.27197439 62.41255557 82.46130721 55 89.625 C40.64122216 100.15477041 19.359869 99.40475505 2.375 99.5 C1.34786896 99.51178284 1.34786896 99.51178284 0.29998779 99.52380371 C-17.09546451 99.67914352 -35.77297328 97.78588347 -48.8125 85.125 C-63.6321049 68.05573971 -74.18604192 42.3638979 -75.125 19.75 C-74.78475492 15.80315701 -74.15350172 14.25973192 -71.8125 11.125 C-51.27356409 -1.02479307 -23.16781404 -0.09003121 0 0 Z "
     fill="#62B5DD"
     transform="translate(637.8125,366.875)"
     id="path20" />
  <path
     d="M0 0 C0.87490082 -0.00067474 1.74980164 -0.00134949 2.6512146 -0.00204468 C61.00553256 0.06901465 61.00553256 0.06901465 76.51245117 13.74975586 C78.84659038 16.44333059 78.32614198 19.28121185 78.2265625 22.703125 C75.50893308 45.98244115 64.50352764 74.61975732 45.875 89.6875 C25.24678944 103.65368147 -7.20266909 101.30988495 -30.68359375 97.9453125 C-40.30025223 96.03699008 -49.7455889 93.27187769 -55.9609375 85.171875 C-67.23984537 67.49919133 -66.43673099 40.55217329 -62.16796875 20.69140625 C-60.15771858 13.63550823 -57.429684 8.32913525 -51.1875 4.25 C-48.41203567 3.38566603 -45.62483048 2.96335318 -42.75 2.5625 C-42.03134766 2.44583984 -41.31269531 2.32917969 -40.57226562 2.20898438 C-27.13842132 0.15029135 -13.55985602 0.00946973 0 0 Z "
     fill="#63B5DD"
     transform="translate(383.1875,366.75)"
     id="path24" />
  <path
     d="M0 0 C3.59206626 3.68914913 5.10018044 6.34632319 5.2109375 11.41015625 C5.23712158 12.30959961 5.26330566 13.20904297 5.2902832 14.13574219 C5.31823975 15.10157227 5.34619629 16.06740234 5.375 17.0625 C5.98621532 33.10853808 6.95751951 51.95751951 19 64 C32.64316606 74.57405314 49.49778442 74.47955214 65.9609375 72.53125 C76.18720658 70.49085427 84.3078452 66.1196044 90.4609375 57.58984375 C93.2086393 52.96617296 95.1499942 48.03849505 97 43 C97.33 43 97.66 43 98 43 C98.54593367 55.90021048 96.7853486 64.6328777 89 75 C88.278125 76.03125 87.55625 77.0625 86.8125 78.125 C82.33780604 83.32375448 75.54372736 87.28924865 69.0625 89.375 C65.06920665 91.49389035 64.4572121 93.6286317 62.88671875 97.73046875 C61.67197192 100.83957847 59.98026143 103.32082277 58 106 C57.45859375 106.79470703 57.45859375 106.79470703 56.90625 107.60546875 C46.87539474 120.96974847 29.33151604 126.30503091 13.55737305 128.60083008 C7.43523562 129.28779011 1.34344331 129.38288213 -4.8125 129.375 C-6.78718262 129.37258301 -6.78718262 129.37258301 -8.80175781 129.37011719 C-18.49415453 129.24797431 -26.86958198 128.27963701 -36 125 C-36.89589844 124.72285156 -37.79179687 124.44570313 -38.71484375 124.16015625 C-52.6406465 119.38622387 -63.29893286 109.4367824 -70 96.5 C-72 92.34210526 -72 92.34210526 -72 90 C-72.6290625 89.85304688 -73.258125 89.70609375 -73.90625 89.5546875 C-80.43870745 87.84286883 -84.94557059 85.44113044 -90 81 C-90.59554688 80.52046875 -91.19109375 80.0409375 -91.8046875 79.546875 C-98.05171492 74.04949087 -103.63154414 64.32899677 -105 56 C-105.11535407 54.12750843 -105.1748585 52.25099879 -105.1875 50.375 C-105.20167969 49.41335938 -105.21585937 48.45171875 -105.23046875 47.4609375 C-105 45 -105 45 -103 43 C-102.72027344 43.76183594 -102.44054687 44.52367187 -102.15234375 45.30859375 C-97.74074022 56.67095526 -92.44358863 64.9445994 -81 70 C-73.54412432 72.86262339 -66.63380986 73.51381946 -58.6875 73.4375 C-57.58607666 73.42992676 -56.48465332 73.42235352 -55.34985352 73.41455078 C-43.83600445 73.18136321 -33.50807341 71.41072704 -25 63 C-12.71225103 49.70975402 -11.66039144 31.02272012 -11.46606445 13.8059082 C-11.27868698 4.88138679 -11.27868698 4.88138679 -8 1 C-5.12529507 -0.43735246 -3.18105412 -0.38172649 0 0 Z "
     fill="#082034"
     transform="translate(515,586)"
     id="path30" />
  <path
     d="M0 0 C3.80881477 1.38877362 6.97938448 3.17017568 10.375 5.375 C54.09996172 32.75202299 104.42890432 45.75959138 155 53 C147.84552041 60.18297154 140.46584237 67.08474017 132.5625 73.4375 C127.14587552 77.79741306 122.08061704 82.47475879 117 87.21484375 C114.03721767 89.97721344 111.00719301 92.65276588 107.9453125 95.3046875 C102.00414864 100.4823283 96.19900259 105.81653844 90.375 111.125 C87.31868051 113.90812892 84.25042752 116.66979803 81.125 119.375 C77.55976472 122.47266344 74.09001432 125.66641274 70.625 128.875 C68.95256217 130.42115665 67.28000145 131.96718027 65.60742188 133.51318359 C64.56627854 134.47620955 63.52586626 135.4400267 62.48632812 136.40478516 C61.12019511 137.67035818 59.74776915 138.92912828 58.375 140.1875 C57.59898437 140.90292969 56.82296875 141.61835937 56.0234375 142.35546875 C54 144 54 144 51 145 C36.1979216 103.61596234 21.42584987 62.22147202 6.87908936 20.74682617 C6.2560462 18.97062613 5.63255853 17.19458195 5.00860596 15.41870117 C4.15905964 12.99975205 3.3115951 10.58008493 2.46484375 8.16015625 C2.21265579 7.44295914 1.96046783 6.72576202 1.70063782 5.98683167 C0 1.11478019 0 1.11478019 0 0 Z "
     fill="#FDE8B8"
     transform="translate(329,716)"
     id="path32" />
  <path
     d="M0 0 C1.35069082 4.05207246 -0.00282098 6.7106535 -1.3671875 10.57421875 C-1.76563622 11.73597626 -1.76563622 11.73597626 -2.1721344 12.92120361 C-3.06404538 15.51319077 -3.96931818 18.10029529 -4.875 20.6875 C-5.51107312 22.52462195 -6.14655932 24.36194721 -6.78149414 26.19946289 C-8.83858107 32.13851966 -10.91686992 38.07003497 -13 44 C-13.51932098 45.47907837 -13.51932098 45.47907837 -14.0491333 46.98803711 C-19.32532885 62.00653686 -24.65479308 77.00594668 -30 92 C-30.71713901 94.01268939 -31.43426144 96.02538469 -32.15136719 98.03808594 C-44.6094849 132.99769526 -44.6094849 132.99769526 -49 145 C-52.03726958 143.63389732 -54.20915026 142.06926193 -56.609375 139.76953125 C-57.28226563 139.13080078 -57.95515625 138.49207031 -58.6484375 137.83398438 C-59.68871094 136.83334961 -59.68871094 136.83334961 -60.75 135.8125 C-65.42935204 131.34220646 -70.14981106 126.96055161 -75.04003906 122.72143555 C-78.26405621 119.88977823 -81.3777896 116.94286672 -84.5 114 C-88.95232739 109.82334497 -93.41967539 105.68654031 -98.046875 101.703125 C-100.56612276 99.50634095 -103.03102996 97.25310381 -105.5 95 C-108.64083556 92.13528185 -111.79100756 89.28814098 -115 86.5 C-118.20899244 83.71185902 -121.35916444 80.86471815 -124.5 78 C-130.12031515 72.87943927 -135.80870142 67.85723266 -141.60546875 62.9375 C-142.24572998 62.39270996 -142.88599121 61.84791992 -143.5456543 61.28662109 C-144.83785856 60.18796498 -146.13226044 59.09188786 -147.42895508 57.99853516 C-148.97112851 56.68713027 -150.48813767 55.34623696 -152 54 C-152 53.67 -152 53.34 -152 53 C-150.58581787 52.7980603 -150.58581787 52.7980603 -149.14306641 52.59204102 C-97.81592572 45.16879725 -42.04530014 31.9037202 0 0 Z "
     fill="#FDE8B8"
     transform="translate(693,716)"
     id="path34" />
  <path
     d="M0 0 C3.86101066 2.14500592 6.91138935 4.60324671 10.125 7.625 C13.78388008 11.00995323 17.48514446 14.25856603 21.375 17.375 C26.80891009 21.75944247 31.89826018 26.45500063 37 31.21484375 C39.96144168 33.97596347 42.98985638 36.65054651 46.05078125 39.30078125 C50.08096023 42.81406353 54.03087977 46.41811101 58 50 C61.33276175 53.00063525 64.66630367 56.00040313 68 59 C55.88506386 92.86706442 42.04406641 126.10438655 27.80651855 159.1272583 C26.99028298 161.02256299 26.17696415 162.91909755 25.36425781 164.81591797 C23.83560381 168.38138393 22.2942402 171.94125398 20.75 175.5 C20.2957666 176.55775635 19.8415332 177.6155127 19.37353516 178.70532227 C18.9563623 179.65850342 18.53918945 180.61168457 18.109375 181.59375 C17.56748535 182.84188477 17.56748535 182.84188477 17.01464844 184.11523438 C16 186 16 186 14 187 C13.72597351 185.76354988 13.72597351 185.76354988 13.44641113 184.50212097 C11.68411083 176.55133406 9.92066423 168.60080232 8.15607452 160.65052319 C7.24994942 156.56784469 6.34419767 152.48508429 5.43945312 148.40209961 C1.59307046 131.04521669 -2.28081436 113.695556 -6.25390625 96.3671875 C-8.87047983 84.95507933 -11.48352861 73.54292615 -13.96655273 62.10083008 C-14.29038814 60.61326891 -14.61704397 59.12631983 -14.94604492 57.63989258 C-16.02378817 52.77029875 -17.03764698 47.89374334 -18 43 C-18.20963379 42.04681885 -18.41926758 41.0936377 -18.63525391 40.11157227 C-19.89160373 32.86586279 -17.18172168 28.19906059 -13.5 22.0625 C-12.67483887 20.62269775 -12.67483887 20.62269775 -11.83300781 19.15380859 C-8.08091072 12.65657051 -4.21752485 6.20748376 0 0 Z "
     fill="#FDE8B8"
     transform="translate(567,824)"
     id="path38" />
  <path
     d="M0 0 C3.92373365 1.30791122 4.25636294 2.73781738 6.21484375 6.3203125 C7.12073242 7.96 7.12073242 7.96 8.04492188 9.6328125 C8.66947266 10.78523437 9.29402344 11.93765625 9.9375 13.125 C11.17568879 15.37765499 12.41396766 17.63026047 13.65234375 19.8828125 C14.22968262 20.95563477 14.80702148 22.02845703 15.40185547 23.13378906 C16.67677201 25.42030299 18.03224049 27.52309952 19.50390625 29.6796875 C23.55794006 38.67689048 18.14127866 52.06948916 16.05078125 61.34765625 C15.64658045 63.16190387 15.2429729 64.97628375 14.83992004 66.79078674 C13.99318606 70.59951965 13.14347737 74.40757105 12.29156494 78.21514893 C11.03259196 83.8468203 9.78635314 89.48124535 8.54443359 95.11669922 C8.34322969 96.02965067 8.14202579 96.94260212 7.93472481 97.88321877 C7.52832088 99.72746125 7.12194688 101.57171034 6.71560287 103.41596603 C5.69562739 108.04267402 4.67301404 112.66879855 3.65039062 117.29492188 C3.24129224 119.14575194 2.83219393 120.99658201 2.4230957 122.84741211 C2.21994751 123.76645325 2.01679932 124.68549438 1.80749512 125.63238525 C0.96949396 129.42384964 0.13179121 133.21537992 -0.70590687 137.00691128 C-1.53033695 140.73830715 -2.35488776 144.46967633 -3.1794796 148.20103645 C-3.56415661 149.94174789 -3.94881262 151.68246396 -4.3334446 153.42318535 C-6.8807163 164.95062856 -9.43660887 176.47613049 -12 188 C-14.41482659 185.58517341 -15.28865369 183.38045065 -16.66015625 180.24609375 C-16.92145325 179.65125183 -17.18275024 179.05640991 -17.45196533 178.44354248 C-18.32775273 176.44392486 -19.19560209 174.44098631 -20.0625 172.4375 C-20.36723236 171.73662262 -20.67196472 171.03574524 -20.9859314 170.31362915 C-32.5868855 143.62129748 -43.61130787 116.68939531 -54.3125 89.625 C-54.67316559 88.71326019 -55.03383118 87.80152039 -55.40542603 86.8621521 C-59.05759562 77.61807966 -62.69640517 68.37596756 -66 59 C-51.92431699 45.85347022 -51.92431699 45.85347022 -45.921875 40.671875 C-43.58894926 38.64241927 -41.29488755 36.572353 -39 34.5 C-35.37976277 31.23295665 -31.73016435 28.00479224 -28.05078125 24.8046875 C-25.73911203 22.77041859 -23.4646857 20.6977769 -21.1875 18.625 C-16.76812478 14.62846624 -12.20050973 10.8556503 -7.54296875 7.140625 C-4.87336619 4.89340195 -2.43347161 2.49900496 0 0 Z "
     fill="#FDE8B7"
     transform="translate(455,824)"
     id="path40" />
  <path
     d="M0 0 C5.45464641 3.88529284 10.42731486 8.1315509 15.3671875 12.6484375 C17.99666032 14.99701708 20.69311033 17.22478696 23.4375 19.4375 C28.40706923 23.45138284 33.10922906 27.68404653 37.78515625 32.03125 C39.83679121 34.02671788 39.83679121 34.02671788 42 35 C40.35448761 38.4557314 38.41311487 41.67756081 36.41015625 44.9375 C35.89236855 45.78042603 35.89236855 45.78042603 35.36412048 46.64038086 C34.63623901 47.82424274 33.90750821 49.00758278 33.17797852 50.19042969 C32.06712551 51.99249632 30.96015755 53.79690759 29.85351562 55.6015625 C29.14346275 56.75535211 28.43318376 57.90900262 27.72265625 59.0625 C26.75984741 60.62677734 26.75984741 60.62677734 25.77758789 62.22265625 C25.19098389 63.13917969 24.60437988 64.05570313 24 65 C23.617229 65.76425293 23.23445801 66.52850586 22.84008789 67.31591797 C19.71066273 70.180025 15.93289014 69.7738377 11.8359375 69.8828125 C10.92929352 69.91035614 10.02264954 69.93789978 9.08853149 69.96627808 C7.16717934 70.01283643 5.24550369 70.04736061 3.32373047 70.07080078 C0.40110163 70.12452024 -2.50683112 70.27407688 -5.42578125 70.42578125 C-18.61554386 70.79766384 -18.61554386 70.79766384 -22.71542358 67.70672607 C-26.0759634 63.95187777 -27.97544901 59.56971841 -30 55 C-30.98652946 53.40194295 -32.00323823 51.82156555 -33.06640625 50.2734375 C-33.89900834 48.97432401 -34.73106824 47.67486281 -35.5625 46.375 C-35.99884766 45.70855469 -36.43519531 45.04210937 -36.88476562 44.35546875 C-39.09898972 40.87249773 -40 39.23193789 -40 35 C-38.11508125 32.9292864 -36.28494874 31.14301136 -34.1875 29.3125 C-33.59727051 28.78285645 -33.00704102 28.25321289 -32.39892578 27.70751953 C-27.94602294 23.74286833 -23.35249325 19.96219853 -18.703125 16.23046875 C-14.8431183 13.04540542 -11.17735628 9.66289291 -7.5078125 6.26171875 C-5.07720126 4.06962544 -2.57630752 2.01764586 0 0 Z "
     fill="#B72C1C"
     transform="translate(512,774)"
     id="path46" />
  <path
     d="M0 0 C7.13419766 5.22014463 10.52930064 12.3990434 12.1484375 20.98046875 C15.0088568 47.88460126 9.30545114 69.01931947 -7.40478516 90.13354492 C-10.52598741 93.95981374 -13.82263583 97.50821474 -17.4375 100.875 C-18.0975 100.875 -18.7575 100.875 -19.4375 100.875 C-26.09393745 90.49304178 -26.09393745 90.49304178 -27.4375 84.875 C-26.5139619 81.34708444 -25.04028639 79.51301136 -22.73046875 76.7109375 C-20.10360023 73.46203368 -18.41506761 70.21723733 -16.6875 66.4375 C-16.39399658 65.80126709 -16.10049316 65.16503418 -15.7980957 64.50952148 C-13.25024195 58.79745657 -11.60682126 53.02095254 -10.4375 46.875 C-10.0971875 45.1115625 -10.0971875 45.1115625 -9.75 43.3125 C-8.95623621 34.58109829 -8.81387408 28.53288042 -13.4375 20.875 C-17.60523215 20.24984018 -19.93184307 20.89869045 -23.25 23.3125 C-24.66550634 24.4764797 -26.06066938 25.66551896 -27.4375 26.875 C-28.12714844 27.45894531 -28.81679688 28.04289062 -29.52734375 28.64453125 C-36.8518282 35.35974575 -41.94106261 43.70925047 -47.25170898 52.02490234 C-48.29546518 53.6533941 -49.36455833 55.2655875 -50.4375 56.875 C-53.47602705 55.46523295 -56.0314595 53.78629772 -58.6875 51.75 C-59.39390625 51.21117187 -60.1003125 50.67234375 -60.828125 50.1171875 C-61.35921875 49.70726562 -61.8903125 49.29734375 -62.4375 48.875 C-58.4245954 38.32254717 -51.45167335 29.58791846 -44.4375 20.875 C-43.7775 20.04613281 -43.1175 19.21726562 -42.4375 18.36328125 C-31.91728097 5.80476978 -17.02720066 -5.5725384 0 0 Z "
     fill="#D27D23"
     transform="translate(708.4375,237.125)"
     id="path48" />
  <path
     d="M0 0 C19.75941793 9.1265473 33.52752835 28.0765828 43.484375 46.859375 C43.484375 47.519375 43.484375 48.179375 43.484375 48.859375 C41.875 50.296875 41.875 50.296875 39.734375 51.859375 C38.69023437 52.6328125 38.69023437 52.6328125 37.625 53.421875 C35.63335879 54.75932749 33.65409577 55.84292923 31.484375 56.859375 C31.09507812 56.21613281 30.70578125 55.57289063 30.3046875 54.91015625 C18.13832709 35.19395376 18.13832709 35.19395376 0.484375 20.859375 C-2.72478671 20.60801467 -2.72478671 20.60801467 -5.515625 20.859375 C-11.15855279 29.67644967 -10.55453672 38.87541305 -8.38183594 48.83886719 C-5.12207601 62.24730317 0.56081397 73.65709906 8.484375 84.859375 C5.844375 90.139375 3.204375 95.419375 0.484375 100.859375 C-1.515625 100.859375 -1.515625 100.859375 -2.85546875 99.6015625 C-4.76382647 97.3712569 -6.64630787 95.12258396 -8.515625 92.859375 C-8.93585938 92.36598633 -9.35609375 91.87259766 -9.7890625 91.36425781 C-27.32044605 70.72941402 -33.2342594 49.79506319 -31.515625 22.859375 C-30.33072933 14.53204656 -27.2356388 7.13653002 -20.890625 1.546875 C-14.67335387 -2.87065975 -7.06988306 -2.29378428 0 0 Z "
     fill="#D27D23"
     transform="translate(334.515625,237.140625)"
     id="path50" />
  <path
     d="M0 0 C1.66071302 3.32142603 -0.25179193 6.55593491 -1.3515625 9.91796875 C-1.87674219 11.57052406 -2.40154842 13.22319809 -2.92602539 14.87597656 C-3.20398956 15.74355591 -3.48195374 16.61113525 -3.76834106 17.50500488 C-8.66916133 32.85116645 -13.22225938 48.10670965 -16 64 C-16.15259277 64.87043945 -16.30518555 65.74087891 -16.46240234 66.63769531 C-18.4470657 78.18830841 -20.1622825 89.6146043 -20.1328125 101.35546875 C-20.13376923 102.21956863 -20.13472595 103.08366852 -20.13571167 103.97395325 C-20.13638773 105.7916369 -20.13457382 107.60932304 -20.13037109 109.42700195 C-20.12504771 112.16298046 -20.13031881 114.89879235 -20.13671875 117.63476562 C-20.13896451 126.63259346 -19.96736051 135.51008335 -19.11669922 144.47387695 C-19 147 -19 147 -20 149 C-21.2783168 160.88205943 -17.27111855 170.74903471 -10 180 C-4.70943978 186.44746405 1.70532449 190.37146278 9.6796875 192.82421875 C12 194 12 194 13.3125 196.625 C13.539375 197.40875 13.76625 198.1925 14 199 C2.32458712 197.79933697 -8.93936361 193.91645704 -17 185 C-33.45880188 164.43542324 -36.43486487 140.16937541 -36.375 114.6875 C-36.37445618 113.81182373 -36.37391235 112.93614746 -36.37335205 112.03393555 C-36.33068182 97.02084093 -35.19005158 82.71090451 -32 68 C-31.79101074 67.00194336 -31.58202148 66.00388672 -31.36669922 64.97558594 C-28.24304021 50.37979199 -23.6856924 36.48002897 -18.07421875 22.65722656 C-17.09188835 20.22729836 -16.15335617 17.78447765 -15.21875 15.3359375 C-12.74284038 9.15917932 -10.70205479 4.70126115 -4.5625 1.5625 C-1.94140625 0.56640625 -1.94140625 0.56640625 0 0 Z "
     fill="#974A16"
     transform="translate(431,482)"
     id="path52" />
  <path
     d="M0 0 C11.50468452 3.56097378 11.50468452 3.56097378 14.23828125 8.5 C14.95474922 9.98819228 15.64440616 11.48947253 16.3125 13 C16.68930908 13.83176758 17.06611816 14.66353516 17.4543457 15.52050781 C26.87199751 36.95849374 32.35803828 58.97276423 36 82 C36.14550293 82.91233398 36.29100586 83.82466797 36.44091797 84.76464844 C41.0435469 115.38771741 41.4423679 152.64506349 23.0625 178.9375 C21.73327505 180.64471547 20.38086718 182.3342781 19 184 C18.45730469 184.66773438 17.91460938 185.33546875 17.35546875 186.0234375 C11.19098738 192.89285956 1.97392416 197.16858691 -7 199 C-9.9375 199.125 -9.9375 199.125 -12 199 C-11.05482993 195.25146835 -10.28147942 194.17159899 -6.91796875 192.12109375 C-5.68203589 191.54344385 -4.43811301 190.98263901 -3.1875 190.4375 C8.6129458 185.12298366 15.13442957 176.88284731 20 165 C21.57523922 159.52048687 21.0491287 153.76923702 20.9609375 148.125 C20.94933594 146.90683594 20.94933594 146.90683594 20.9375 145.6640625 C20.92589844 144.93654785 20.91429687 144.2090332 20.90234375 143.45947266 C21 141 21 141 21.48901367 137.78686523 C22.07906399 133.41406516 22.19807272 129.15266611 22.23828125 124.74609375 C22.24812042 123.86067398 22.25795959 122.97525421 22.26809692 122.06300354 C22.62636858 81.33968023 17.49368168 41.79701512 0.8828125 4.1875 C0 2 0 2 0 0 Z "
     fill="#984B16"
     transform="translate(591,482)"
     id="path54" />
  <path
     d="M0 0 C6.90359652 3.45179826 11.43512863 9.02337138 14.375 16.0625 C17.54563658 25.72033861 17.28727788 36.71627047 13 46 C9.70782742 51.7463376 6.13811324 55.46009108 0 58 C-5.78167037 58.82595291 -9.31269541 58.02225556 -14.109375 54.6796875 C-20.76727659 48.76460964 -23.64077085 41.45375169 -24.21484375 32.73828125 C-24.49367488 22.42152945 -23.3569372 13.83885955 -16.6640625 5.6953125 C-11.73844075 0.67719081 -6.91799419 -0.87847545 0 0 Z "
     fill="#081B2A"
     transform="translate(643,384)"
     id="path56" />
  <path
     d="M0 0 C7.54032032 3.69623545 12.26955069 10.23977564 15 18 C17.32078309 28.03493534 16.25332373 37.60477516 12 47 C8.47423929 52.18927203 5.08304159 56.06887569 -1 58 C-6.2640996 58.47855451 -9.57345883 57.91963354 -14 55 C-20.62491955 49.20113027 -23.69825541 41.60845796 -24.41796875 32.93359375 C-24.90499103 22.98218003 -23.94155418 13.45177201 -16.95703125 5.74609375 C-11.3959296 0.7319857 -7.51237218 -0.88979027 0 0 Z "
     fill="#081B2B"
     transform="translate(389,384)"
     id="path58" />
  <path
     d="M0 0 C3.01250612 1.33095637 4.83640577 2.72528469 7 5.1875 C18.04054032 16.4875402 31.82704869 19.30045217 47 20 C42.03642766 29.2502939 33.14339436 33.45664567 23.45532227 36.49707031 C18.57226988 37.93322597 14.07716412 38.88301465 9 39 C7.75863281 39.05027344 6.51726563 39.10054687 5.23828125 39.15234375 C-13.45257322 39.69385651 -30.49053884 36.50969566 -44.7421875 23.48046875 C-46 22 -46 22 -46 20 C-45.42668945 19.93530518 -44.85337891 19.87061035 -44.26269531 19.80395508 C-27.47410557 17.84259256 -15.26251249 15.42539217 -3 3 C-2.12021484 2.12214844 -2.12021484 2.12214844 -1.22265625 1.2265625 C-0.81917969 0.82179688 -0.41570312 0.41703125 0 0 Z "
     fill="#954616"
     transform="translate(511,659)"
     id="path60" />
  <path
     d="M0 0 C5.26409556 6.40227838 5.52777218 12.04571925 5 20 C3.22624027 32.2598099 -0.29223 43.0139411 -6 53.9375 C-6.33217529 54.576875 -6.66435059 55.21625 -7.0065918 55.875 C-8.94248448 59.46037412 -10.95442736 62.28753686 -14 65 C-16.5495024 62.64661317 -18.65573308 60.17080184 -20.6875 57.375 C-23.7824681 53.16458654 -27.21881769 49.33604494 -30.75390625 45.4921875 C-33.25073934 42.72178835 -35.62736665 39.8771828 -38 37 C-13.07556638 -1.83057929 -13.07556638 -1.83057929 0 0 Z "
     fill="#48261B"
     transform="translate(695,257)"
     id="path62" />
  <path
     d="M0 0 C5.02846063 0.6399859 7.70152391 3.1487402 11.4375 6.4375 C12.12714844 7.03304688 12.81679688 7.62859375 13.52734375 8.2421875 C22.42116794 16.50877996 30.32981213 27.40558912 35.4375 38.4375 C34.591875 39.0975 33.74625 39.7575 32.875 40.4375 C26.17077351 46.06342433 21.01993421 53.15468609 15.81347656 60.1328125 C12.64950199 64.331499 12.64950199 64.331499 10.4375 65.4375 C3.72671599 55.89327385 -1.0415292 46.56376773 -4.5625 35.4375 C-4.9028125 34.385625 -5.243125 33.33375 -5.59375 32.25 C-8.11438331 23.47446182 -9.7820432 13.10597499 -5.625 4.625 C-2.95927419 0.50524194 -2.95927419 0.50524194 0 0 Z "
     fill="#49261A"
     transform="translate(331.5625,256.5625)"
     id="path64" />
  <path
     d="M0 0 C7.51083579 5.36800636 13.72853423 11.86981942 15.3984375 21.234375 C15.61176042 25.59929004 14.76453504 28.6430646 12 32 C9.10731753 33.76156945 6.87251691 34.29517543 3.5 34.3125 C2.7471875 34.32925781 1.994375 34.34601562 1.21875 34.36328125 C-1 34 -1 34 -2.953125 32.5078125 C-6.78006228 29.68873275 -11.46110845 30.40111848 -16 31 C-18.1820941 31.87511066 -20.11814014 32.92461291 -22.15625 34.08984375 C-25.25970884 35.6218478 -27.64457377 35.58074685 -31 35 C-35.17974702 30.82025298 -36.19750417 27.7890947 -36.375 22 C-36.28902272 14.21045809 -34.36710868 8.65222675 -29.0625 2.8984375 C-19.9545436 -5.48502237 -10.72743919 -6.0028355 0 0 Z "
     fill="#3F231C"
     transform="translate(561,502)"
     id="path66" />
  <path
     d="M0 0 C6.30539559 3.62496426 11.18022935 9.41218472 13.37890625 16.36328125 C14.80567694 23.3943044 14.22114254 29.20712146 10.8125 35.5 C8.8125 37.5 8.8125 37.5 5.75 37.875 C2.14963912 37.53210849 0.65387568 37.065113 -2.4375 35.5 C-7.53946918 33.04090337 -12.60198203 32.52363387 -18.1875 33.5 C-19.53561301 34.47998422 -20.87004454 35.47917245 -22.1875 36.5 C-25.74873029 37.14686409 -29.14887447 36.85531926 -32.5625 35.6875 C-35.11552184 33.82183019 -36.1048829 32.02191767 -36.59375 28.93359375 C-36.8796775 19.79582747 -34.50680548 14.13036658 -28.2890625 7.46484375 C-20.20387515 -0.06109151 -10.89217818 -4.71924161 0 0 Z "
     fill="#3F241C"
     transform="translate(485.1875,499.5)"
     id="path68" />
  <path
     d="M0 0 C4.03711961 1.34570654 4.89392969 3.86666514 6.75 7.4375 C7.07871094 8.03626953 7.40742188 8.63503906 7.74609375 9.25195312 C8.5674824 10.79942162 9.29155922 12.39767365 10 14 C8.63202658 16.73594684 6.53083006 17.46285428 3.93017578 18.89794922 C0.9638813 20.59158105 -1.7973293 22.56431682 -4.5625 24.5625 C-5.1611084 24.99304688 -5.7597168 25.42359375 -6.37646484 25.8671875 C-15.14292728 32.22281553 -23.60382606 38.9517112 -31.875 45.9375 C-36.59799126 49.90506659 -41.44060845 53.67392386 -46.375 57.375 C-47.04128418 57.87507568 -47.70756836 58.37515137 -48.39404297 58.89038086 C-50.25301111 60.27420665 -52.12184241 61.64235744 -54 63 C-54.56235352 63.40895508 -55.12470703 63.81791016 -55.70410156 64.23925781 C-58.38510458 66.12075038 -59.64479983 67 -63 67 C-63.99 64.36 -64.98 61.72 -66 59 C-51.92431699 45.85347022 -51.92431699 45.85347022 -45.921875 40.671875 C-43.58894926 38.64241927 -41.29488755 36.572353 -39 34.5 C-35.37976277 31.23295665 -31.73016435 28.00479224 -28.05078125 24.8046875 C-25.73911203 22.77041859 -23.4646857 20.6977769 -21.1875 18.625 C-16.76812478 14.62846624 -12.20050973 10.8556503 -7.54296875 7.140625 C-4.87336619 4.89340195 -2.43347161 2.49900496 0 0 Z "
     fill="#EBCB8F"
     transform="translate(455,824)"
     id="path78" />
  <path
     d="M0 0 C3.86101066 2.14500592 6.91138935 4.60324671 10.125 7.625 C13.78388008 11.00995323 17.48514446 14.25856603 21.375 17.375 C26.80891009 21.75944247 31.89826018 26.45500063 37 31.21484375 C39.96144168 33.97596347 42.98985638 36.65054651 46.05078125 39.30078125 C50.08095746 42.81406111 54.03138481 46.41755246 58 50 C59.87474528 51.68778298 61.74973662 53.37529269 63.625 55.0625 C65.08333333 56.375 66.54166667 57.6875 68 59 C67.01 61.97 66.02 64.94 65 68 C60.80069501 66.95017375 59.36394823 65.91943962 56.125 63.1875 C55.15433594 62.3728125 54.18367187 61.558125 53.18359375 60.71875 C52.1216695 59.8133512 51.06049426 58.90707332 50 58 C49.4548877 57.5359375 48.90977539 57.071875 48.34814453 56.59375 C43.05184736 52.08339453 37.78097767 47.54372754 32.5234375 42.98828125 C20.39240161 32.49925854 7.90717252 22.5181384 -5 13 C-4.35832698 7.3195052 -3.36688583 4.45297803 0 0 Z "
     fill="#EBCA8E"
     transform="translate(567,824)"
     id="path80" />
  <path
     d="M0 0 C7.27602328 0.66145666 14.14388603 1.52470123 19.8125 6.4375 C26.9385002 16.25116117 27.18151215 29.06844769 27.1875 40.625 C27.19974609 41.84574219 27.21199219 43.06648438 27.22460938 44.32421875 C27.23656271 51.77513014 26.64828025 58.72888952 25 66 C24.34 66 23.68 66 23 66 C22.56300781 64.52128418 22.56300781 64.52128418 22.1171875 63.01269531 C14.53110667 37.21037581 14.53110667 37.21037581 4.90283203 12.12011719 C3.19520357 8.11009945 1.6048174 4.05202024 0 0 Z "
     fill="#4287AC"
     transform="translate(678,369)"
     id="path82" />
  <path
     d="M0 0 C-0.58647521 3.20976295 -1.88659459 5.83585349 -3.37402344 8.71923828 C-8.10972446 18.03124356 -11.47143036 27.73252472 -14.75 37.625 C-14.98193054 38.32047943 -15.21386108 39.01595886 -15.45281982 39.73251343 C-18.66526112 49.40269281 -21.48026108 59.12597359 -24 69 C-24.33 69 -24.66 69 -25 69 C-31.04183309 24.33359107 -31.04183309 24.33359107 -20.30078125 7.69921875 C-16.36552521 2.55856896 -12.57020479 1.399297 -6.40234375 0.296875 C-4 0 -4 0 0 0 Z "
     fill="#4287AC"
     transform="translate(346,369)"
     id="path84" />
  <path
     d="M0 0 C5.38806067 4.7722823 5.60824304 10.98871728 6.07421875 17.77734375 C6.13029297 18.84662109 6.13029297 18.84662109 6.1875 19.9375 C4.01875748 19.43146008 2.18782373 18.93766187 0.1875 17.9375 C-6.43607057 17.25730168 -11.20115866 17.72988887 -16.96875 21.02734375 C-20.07220884 22.5593478 -22.45707377 22.51824685 -25.8125 21.9375 C-28.3125 19.625 -28.3125 19.625 -29.8125 16.9375 C-29.3175 15.4525 -29.3175 15.4525 -28.8125 13.9375 C-28.4825 14.5975 -28.1525 15.2575 -27.8125 15.9375 C-27.44898438 15.27363281 -27.08546875 14.60976563 -26.7109375 13.92578125 C-23.05677542 7.50757349 -19.98358792 3.2425749 -13.4375 -0.375 C-8.72335529 -1.60965695 -4.58552918 -1.73231102 0 0 Z "
     fill="#081D2F"
     transform="translate(555.8125,515.0625)"
     id="path88" />
  <path
     d="M0 0 C8.16892056 3.26756822 12.47733973 8.1081487 16 16 C16.875 19.5 16.875 19.5 17 22 C16 23 16 23 13 23.3125 C9.74954755 23.29268017 7.63160661 22.46671703 4.75 21 C-0.35196918 18.54090337 -5.41448203 18.02363387 -11 19 C-12.35605369 19.96896654 -13.69221011 20.9668188 -15 22 C-18.25 22.1875 -18.25 22.1875 -21 22 C-21 21.67 -21 21.34 -21 21 C-17.535 20.505 -17.535 20.505 -14 20 C-14.04640625 19.20335937 -14.0928125 18.40671875 -14.140625 17.5859375 C-14.50492726 6.89106389 -14.50492726 6.89106389 -10 2 C-6.25816125 -0.49455917 -4.43756964 -0.37606522 0 0 Z "
     fill="#071C2F"
     transform="translate(478,514)"
     id="path92" />
  <path
     d="M0 0 C2.18850797 2.7982096 3.96354015 5.6478602 5.6875 8.75 C11.45769946 18.3764507 18.8811673 24.51101479 29.67578125 27.8203125 C32 29 32 29 33.3125 31.625 C33.539375 32.40875 33.76625 33.1925 34 34 C32.10306139 33.71561048 30.20747973 33.42216208 28.3125 33.125 C27.25675781 32.96257813 26.20101563 32.80015625 25.11328125 32.6328125 C22.15828426 32.03217321 19.67469522 31.39317156 17 30 C16.59738371 28.35598348 16.20136676 26.7099153 15.84765625 25.0546875 C14.31711308 21.34470727 11.13112417 18.98254994 8.26171875 16.265625 C3.55527551 11.55105318 0.50671614 6.75621526 0 0 Z "
     fill="#B15915"
     transform="translate(411,647)"
     id="path100" />
  <path
     d="M0 0 C0.99 0 1.98 0 3 0 C3 10.89 3 21.78 3 33 C2.01 32.67 1.02 32.34 0 32 C0 21.44 0 10.88 0 0 Z "
     fill="#142330"
     transform="translate(263,571)"
     id="path102" />
  <path
     d="M0 0 C0.82725586 -0.00451172 1.65451172 -0.00902344 2.50683594 -0.01367188 C7.611521 -0.00134668 12.50975238 0.39406292 17.5625 1.125 C17.5625 1.455 17.5625 1.785 17.5625 2.125 C16.52955811 2.15005615 15.49661621 2.1751123 14.43237305 2.20092773 C10.55011444 2.29606924 6.6679911 2.39601602 2.78588867 2.49731445 C1.11502273 2.54026441 -0.55587595 2.58196177 -2.22680664 2.62231445 C-11.33019539 2.84301918 -20.38099318 3.09484605 -29.4375 4.125 C-28.1175 3.795 -26.7975 3.465 -25.4375 3.125 C-25.4375 2.465 -25.4375 1.805 -25.4375 1.125 C-16.95192321 0.40501167 -8.51620042 0.0190448 0 0 Z "
     fill="#020E34"
     transform="translate(512.4375,382.875)"
     id="path104" />
  <path
     d="M0 0 C2.5 0.25 2.5 0.25 4.5 2.25 C4.75 4.75 4.75 4.75 4.5 7.25 C2.5 9.25 2.5 9.25 0 9.5 C-2.5 9.25 -2.5 9.25 -4.5 7.25 C-4.75 4.75 -4.75 4.75 -4.5 2.25 C-2.5 0.25 -2.5 0.25 0 0 Z "
     fill="#D1F2F8"
     transform="translate(647.5,395.75)"
     id="path108" />
  <path
     d="M0 0 C1.2375 0.1546875 1.2375 0.1546875 2.5 0.3125 C4.5 3.3125 4.5 3.3125 4.1875 5.9375 C3.5 8.3125 3.5 8.3125 2.5 9.3125 C0.0625 9.5 0.0625 9.5 -2.5 9.3125 C-4.5 7.3125 -4.5 7.3125 -4.75 4.8125 C-4.40047575 1.3172575 -3.47557682 0.4344471 0 0 Z "
     fill="#D0F0F5"
     transform="translate(393.5,395.6875)"
     id="path112" />
  <path
     d="M0 0 C0.87783158 2.95514296 1.09431755 5.36941079 0.8125 8.4375 C0.72935547 9.54931641 0.72935547 9.54931641 0.64453125 10.68359375 C-0.21636854 13.77761543 -1.9612919 15.53151019 -4 18 C-5.82721609 21.27376216 -7.51906456 24.59997919 -9.21875 27.94140625 C-10.89032286 30.8116728 -12.54138646 32.79479619 -15 35 C-13.70188352 31.47178598 -12.07659029 28.25942987 -10.23242188 24.98657227 C-5.70258037 16.91646912 -2.61836607 8.87475039 0 0 Z "
     fill="#0F1434"
     transform="translate(720,288)"
     id="path116" />
  <path
     d="M0 0 C0.66 0.99 1.32 1.98 2 3 C1.67 3.66 1.34 4.32 1 5 C0.34 5 -0.32 5 -1 5 C-1.144375 6.11375 -1.28875 7.2275 -1.4375 8.375 C-2 12 -2 12 -3 14 C-3.66 14 -4.32 14 -5 14 C-5.18175781 14.58007812 -5.36351562 15.16015625 -5.55078125 15.7578125 C-7.0418106 20.39147293 -8.68333576 24.69762355 -11 29 C-12.30085631 25.09743107 -11.38722257 23.97718094 -9.7265625 20.2734375 C-9.2315625 19.1596875 -8.7365625 18.0459375 -8.2265625 16.8984375 C-7.69804688 15.73570312 -7.16953125 14.57296875 -6.625 13.375 C-6.10421875 12.20453125 -5.5834375 11.0340625 -5.046875 9.828125 C-1.16964286 1.16964286 -1.16964286 1.16964286 0 0 Z "
     fill="#0F1721"
     transform="translate(595,982)"
     id="path118" />
  <path
     d="M0 0 C0.33 0 0.66 0 1 0 C-0.64516129 13.16129032 -0.64516129 13.16129032 -3.75 17.375 C-6.3884032 19.28051343 -8.87337631 20.14728445 -12 21 C-11.113125 20.071875 -10.22625 19.14375 -9.3125 18.1875 C-4.76163768 12.91410741 -2.18602342 6.55807026 0 0 Z "
     fill="#07121C"
     transform="translate(702,438)"
     id="path120" />
  <path
     d="M0 0 C0.33 0 0.66 0 1 0 C1.04954711 4.05676492 1.085789 8.11341194 1.10986328 12.17041016 C1.11990253 13.54967315 1.13353677 14.92891496 1.15087891 16.30810547 C1.17521754 18.2938514 1.18543255 20.2797545 1.1953125 22.265625 C1.20578613 23.45961914 1.21625977 24.65361328 1.22705078 25.88378906 C1.01034762 28.85798164 0.56186122 30.50318379 -1 33 C-2.68269274 29.63461453 -2.42635682 25.68495191 -1.51196289 22.07128906 C-0.94032601 19.75857219 -0.79034859 17.61348286 -0.68359375 15.234375 C-0.64169922 14.34492187 -0.59980469 13.45546875 -0.55664062 12.5390625 C-0.51732422 11.61867188 -0.47800781 10.69828125 -0.4375 9.75 C-0.39431641 8.81414063 -0.35113281 7.87828125 -0.30664062 6.9140625 C-0.2008195 4.60951359 -0.09873443 2.30486161 0 0 Z "
     fill="#E48A1F"
     transform="translate(738,576)"
     id="path122" />
  <path
     d="M0 0 C0.33 0.66 0.66 1.32 1 2 C0.34 2 -0.32 2 -1 2 C-1 2.66 -1 3.32 -1 4 C-2.8125 6.125 -2.8125 6.125 -5 8 C-5.99 8 -6.98 8 -8 8 C-8 8.66 -8 9.32 -8 10 C-9.65 10 -11.3 10 -13 10 C-12.05249189 6.6038113 -11.46549003 5.28306826 -8.3984375 3.41796875 C-7.40070312 3.01191406 -6.40296875 2.60585938 -5.375 2.1875 C-4.37210938 1.76855469 -3.36921875 1.34960938 -2.3359375 0.91796875 C-1.17964844 0.46357422 -1.17964844 0.46357422 0 0 Z "
     fill="#AF5A16"
     transform="translate(592,671)"
     id="path124" />
  <path
     d="M0 0 C3.35006941 1.46376907 5.61314868 3.36145468 8.25 5.875 C12.96555846 10.140719 17.51319073 13.70943256 24 14.25 C24.66 14.1675 25.32 14.085 26 14 C26 14.99 26 15.98 26 17 C15.07648287 15.59257759 7.00357218 9.21406613 0 1 C0 0.67 0 0.34 0 0 Z "
     fill="#09143B"
     transform="translate(574,463)"
     id="path126" />
  <path
     d="M0 0 C0.33 0 0.66 0 1 0 C0.38277416 9.56700056 -1.8201341 18.69247957 -4 28 C-6.5654594 25.4345406 -6.54046087 23.52313332 -7 20 C-6.34 20.33 -5.68 20.66 -5 21 C-3.35 14.07 -1.7 7.14 0 0 Z "
     fill="#F0ECD0"
     transform="translate(447,984)"
     id="path128" />
  <path
     d="M0 0 C0.66 0.99 1.32 1.98 2 3 C0.75160501 4.105981 -0.49879234 5.20970201 -1.75 6.3125 C-2.44609375 6.92738281 -3.1421875 7.54226562 -3.859375 8.17578125 C-5.85114506 9.87314734 -7.88898915 11.45477809 -10 13 C-10 9 -10 9 -8.57421875 7.1484375 C-7.95160156 6.56320313 -7.32898438 5.97796875 -6.6875 5.375 C-6.07261719 4.78460938 -5.45773437 4.19421875 -4.82421875 3.5859375 C-3 2 -3 2 0 0 Z "
     fill="#0D1C28"
     transform="translate(304,218)"
     id="path130" />
  <path
     d="M0 0 C11.22 0 22.44 0 34 0 C34 0.33 34 0.66 34 1 C31.02148438 1.29296875 31.02148438 1.29296875 28.04296875 1.5859375 C25.70011858 1.92665391 25.70011858 1.92665391 23 4 C23 3.34 23 2.68 23 2 C11.615 1.505 11.615 1.505 0 1 C0 0.67 0 0.34 0 0 Z "
     fill="#1B1C30"
     transform="translate(504,748)"
     id="path132" />
  <path
     d="M0 0 C6.93 0 13.86 0 21 0 C21 0.33 21 0.66 21 1 C16.93809157 1.50488515 12.87538649 2.0030519 8.8125 2.5 C7.08676758 2.71462891 7.08676758 2.71462891 5.32617188 2.93359375 C3.65844727 3.13662109 3.65844727 3.13662109 1.95703125 3.34375 C0.42526245 3.53227539 0.42526245 3.53227539 -1.13745117 3.72460938 C-3.78141061 3.97897068 -6.3462199 4.05115721 -9 4 C-5.86501708 2.14223235 -3.62528568 1.79859524 0 2 C0 1.34 0 0.68 0 0 Z "
     fill="#040D16"
     transform="translate(594,367)"
     id="path134" />
  <path
     d="M0 0 C0.33 0 0.66 0 1 0 C1.02699725 2.27076842 1.04639453 4.54162821 1.0625 6.8125 C1.07410156 8.07707031 1.08570313 9.34164063 1.09765625 10.64453125 C1 14 1 14 0 17 C-0.66 17 -1.32 17 -2 17 C-4.42857143 10.71428571 -4.42857143 10.71428571 -3 7 C-2.34 7 -1.68 7 -1 7 C-0.67 4.69 -0.34 2.38 0 0 Z "
     fill="#468EB3"
     transform="translate(703,418)"
     id="path136" />
  <path
     d="M0 0 C2.97 0 5.94 0 9 0 C8.34 0.66 7.68 1.32 7 2 C9.475 5.465 9.475 5.465 12 9 C11.67 9.66 11.34 10.32 11 11 C9.16365304 9.35742342 7.3308593 7.71117305 5.5 6.0625 C4.97535156 5.59392578 4.45070313 5.12535156 3.91015625 4.64257812 C2.5878256 3.44904592 1.29166061 2.22665821 0 1 C0 0.67 0 0.34 0 0 Z "
     fill="#F3EBCC"
     transform="translate(541,769)"
     id="path138" />
  <path
     d="M0 0 C1.34733513 4.0420054 0.02580484 6.76603971 -1.3125 10.625 C-1.53873047 11.31851563 -1.76496094 12.01203125 -1.99804688 12.7265625 C-3.74119084 17.87059542 -3.74119084 17.87059542 -6 19 C-5.7834375 18.21753906 -5.566875 17.43507813 -5.34375 16.62890625 C-5.0653125 15.61699219 -4.786875 14.60507812 -4.5 13.5625 C-4.2215625 12.55316406 -3.943125 11.54382813 -3.65625 10.50390625 C-2.95774542 8.27019139 -2.95774542 8.27019139 -3 7 C-4.65 7 -6.3 7 -8 7 C-5.4837822 4.39391727 -2.94865641 2.10618315 0 0 Z "
     fill="#F5F0D4"
     transform="translate(693,716)"
     id="path140" />
  <path
     d="M0 0 C0.99 0 1.98 0 3 0 C1.64147869 3.08693704 0.15489047 5.08641734 -2.375 7.3125 C-2.96023438 7.84488281 -3.54546875 8.37726563 -4.1484375 8.92578125 C-6 10 -6 10 -8.2265625 9.66796875 C-8.81179688 9.44753906 -9.39703125 9.22710937 -10 9 C-9.44570313 8.51789063 -8.89140625 8.03578125 -8.3203125 7.5390625 C-7.59585938 6.90742188 -6.87140625 6.27578125 -6.125 5.625 C-5.40570312 4.99851563 -4.68640625 4.37203125 -3.9453125 3.7265625 C-2.5923402 2.52573166 -1.2791655 1.2791655 0 0 Z "
     fill="#091825"
     transform="translate(663,228)"
     id="path142" />
  <path
     d="M0 0 C2.06277107 0.14194764 4.12521031 0.28872216 6.1875 0.4375 C7.91033203 0.55931641 7.91033203 0.55931641 9.66796875 0.68359375 C12.51598171 0.95403812 15.21210482 1.37521747 18 2 C18 2.33 18 2.66 18 3 C6.47835991 4.33257403 6.47835991 4.33257403 1 3 C0.67 2.01 0.34 1.02 0 0 Z "
     fill="#122837"
     transform="translate(193,1026)"
     id="path144" />
  <path
     d="M0 0 C8.06350113 -0.12867289 15.97497656 0.20318916 24 1 C24 1.33 24 1.66 24 2 C20.37629339 2.25413123 16.75131263 2.47405533 13.125 2.6875 C11.57619141 2.79674805 11.57619141 2.79674805 9.99609375 2.90820312 C8.51689453 2.99038086 8.51689453 2.99038086 7.0078125 3.07421875 C6.09660645 3.13182373 5.18540039 3.18942871 4.24658203 3.2487793 C3.50520996 3.16668213 2.76383789 3.08458496 2 3 C1.34 2.01 0.68 1.02 0 0 Z "
     fill="#152E3F"
     transform="translate(323,1040)"
     id="path146" />
  <path
     d="M0 0 C3.53600465 1.91135386 5.78972846 3.62642766 8 7 C7.4225 6.649375 6.845 6.29875 6.25 5.9375 C4.10671053 4.84938777 4.10671053 4.84938777 2.0625 5.125 C-0.70301404 6.29824838 -2.73511598 8.04968321 -5 10 C-3.84414715 6.08788267 -2.64465038 3.1254959 0 0 Z "
     fill="#ECDA9D"
     transform="translate(567,824)"
     id="path148" />
  <path
     d="M0 0 C2.0625 0.4375 2.0625 0.4375 4 1 C4 2.65 4 4.3 4 6 C2.125 6.625 2.125 6.625 0 7 C-0.66 6.34 -1.32 5.68 -2 5 C-1.46428571 1.46428571 -1.46428571 1.46428571 0 0 Z "
     fill="#A9DBF2"
     transform="translate(392,397)"
     id="path152" />
  <path
     d="M0 0 C1.80859375 1.03515625 1.80859375 1.03515625 3.30859375 3.72265625 C3.47359375 4.48578125 3.63859375 5.24890625 3.80859375 6.03515625 C3.14859375 6.03515625 2.48859375 6.03515625 1.80859375 6.03515625 C1.80859375 5.37515625 1.80859375 4.71515625 1.80859375 4.03515625 C-0.20406152 3.36427116 -2.2253042 2.71865688 -4.25390625 2.09765625 C-7.19140625 1.03515625 -7.19140625 1.03515625 -9.19140625 -0.96484375 C-5.34286823 -2.24768976 -3.66045422 -1.4440324 0 0 Z "
     fill="#B25C17"
     transform="translate(441.19140625,674.96484375)"
     id="path154" />
  <path
     d="M0 0 C0.66 0 1.32 0 2 0 C2 0.66 2 1.32 2 2 C4.97 2 7.94 2 11 2 C11 2.33 11 2.66 11 3 C9.14375 3.1546875 9.14375 3.1546875 7.25 3.3125 C3.58552862 3.74966501 1.92449258 4.75788902 -1 7 C-4.25 7.1875 -4.25 7.1875 -7 7 C-7 6.67 -7 6.34 -7 6 C-3.535 5.505 -3.535 5.505 0 5 C0 3.35 0 1.7 0 0 Z "
     fill="#252029"
     transform="translate(464,529)"
     id="path156" />
  <path
     d="M0 0 C4.95 0 9.9 0 15 0 C12 3 12 3 9.84375 3.3984375 C8.68359375 3.38683594 8.68359375 3.38683594 7.5 3.375 C6.7265625 3.38273437 5.953125 3.39046875 5.15625 3.3984375 C3 3 3 3 0 0 Z "
     fill="#5EB0D4"
     transform="translate(384,463)"
     id="path158" />
  <path
     d="M0 0 C0.33 0 0.66 0 1 0 C1 3.3 1 6.6 1 10 C0.34 9.67 -0.32 9.34 -1 9 C-1.99 9.99 -2.98 10.98 -4 12 C-3.52494322 10.18641846 -3.04483958 8.37415821 -2.5625 6.5625 C-2.29566406 5.55316406 -2.02882813 4.54382813 -1.75390625 3.50390625 C-1 1 -1 1 0 0 Z "
     fill="#10193E"
     transform="translate(612,629)"
     id="path160" />
  <path
     d="M0 0 C2.475 0.99 2.475 0.99 5 2 C4.649375 2.61875 4.29875 3.2375 3.9375 3.875 C3.628125 4.57625 3.31875 5.2775 3 6 C3.33 6.66 3.66 7.32 4 8 C2.68 7.67 1.36 7.34 0 7 C0 4.69 0 2.38 0 0 Z "
     fill="#AADCF0"
     transform="translate(645,396)"
     id="path162" />
  <path
     d="M0 0 C0.66 0 1.32 0 2 0 C2.33 0.99 2.66 1.98 3 3 C2.21625 3.598125 1.4325 4.19625 0.625 4.8125 C-2.14574323 6.91085249 -2.14574323 6.91085249 -4 10 C-4.66 9.67 -5.32 9.34 -6 9 C-5.05016642 7.49460339 -4.08988109 5.99579653 -3.125 4.5 C-2.59132813 3.6646875 -2.05765625 2.829375 -1.5078125 1.96875 C-0.76144531 0.99421875 -0.76144531 0.99421875 0 0 Z "
     fill="#0D1924"
     transform="translate(640,252)"
     id="path164" />
  <path
     d="M0 0 C1.41702513 0.14230808 2.8336096 0.28900746 4.25 0.4375 C5.43335938 0.55931641 5.43335938 0.55931641 6.640625 0.68359375 C8.82364639 0.97634993 10.8773182 1.42064419 13 2 C13 2.99 13 3.98 13 5 C11.01853549 4.55170486 9.03985789 4.09107502 7.0625 3.625 C5.96035156 3.36976563 4.85820312 3.11453125 3.72265625 2.8515625 C2.82417969 2.57054687 1.92570312 2.28953125 1 2 C0.67 1.34 0.34 0.68 0 0 Z "
     fill="#9D5219"
     transform="translate(429,676)"
     id="path166" />
  <path
     d="M0 0 C3.96 0.33 7.92 0.66 12 1 C12 1.33 12 1.66 12 2 C10.35 2.33 8.7 2.66 7 3 C7 3.33 7 3.66 7 4 C4.36 4 1.72 4 -1 4 C-0.67 2.68 -0.34 1.36 0 0 Z "
     fill="#C27724"
     transform="translate(355,344)"
     id="path168" />
  <path
     d="M0 0 C2.80435411 -0.05632424 5.35146678 0.04185298 8.125 0.3125 C9.25615234 0.4043457 9.25615234 0.4043457 10.41015625 0.49804688 C12.27463438 0.6514533 14.13752498 0.82393459 16 1 C16 1.33 16 1.66 16 2 C10.06 2.33 4.12 2.66 -2 3 C-1.34 2.01 -0.68 1.02 0 0 Z "
     fill="#C27625"
     transform="translate(472,278)"
     id="path170" />
  <path
     d="M0 0 C2.0245738 1.93254772 3.42105792 3.63158688 5 6 C1.86650268 7.04449911 1.01031744 6.93423645 -2 6 C-1.49396008 3.83125748 -1.00016187 2.00032373 0 0 Z "
     fill="#132434"
     transform="translate(412,636)"
     id="path172" />
  <path
     d="M0 0 C2.31 0 4.62 0 7 0 C7 0.99 7 1.98 7 3 C3.04 3 -0.92 3 -5 3 C-5 2.67 -5 2.34 -5 2 C-3.35 1.67 -1.7 1.34 0 1 C0 0.67 0 0.34 0 0 Z "
     fill="#112A3C"
     transform="translate(657,465)"
     id="path174" />
  <path
     d="M0 0 C6.625 -0.25 6.625 -0.25 10 2 C6.78548731 3.60725635 3.56387464 3.05748185 0 3 C0 2.01 0 1.02 0 0 Z "
     fill="#C07625"
     transform="translate(489,745)"
     id="path178" />
  <path
     d="M0 0 C3.65316671 1.24976756 4.78065836 1.67098753 7 5 C6.34 5 5.68 5 5 5 C4.67 5.66 4.34 6.32 4 7 C1.49962266 4.82575883 0.56371414 3.26954202 0 0 Z "
     fill="#F0E7CB"
     transform="translate(329,716)"
     id="path180" />
  <path
     d="M0 0 C0.66 0.99 1.32 1.98 2 3 C-0.97 5.475 -0.97 5.475 -4 8 C-4.66 7.67 -5.32 7.34 -6 7 C-4.02 4.69 -2.04 2.38 0 0 Z "
     fill="#AF5514"
     transform="translate(605,659)"
     id="path182" />
  <path
     d="M0 0 C0.99 0.33 1.98 0.66 3 1 C3.25 7.625 3.25 7.625 1 11 C-0.28317892 7.15046324 -0.06643637 4.05261865 0 0 Z "
     fill="#C37824"
     transform="translate(736,568)"
     id="path184" />
  <path
     d="M0 0 C0.99 0.33 1.98 0.66 3 1 C3.33 3.64 3.66 6.28 4 9 C3.01 8.67 2.02 8.34 1 8 C0.67 5.36 0.34 2.72 0 0 Z "
     fill="#162631"
     transform="translate(750,517)"
     id="path186" />
  <path
     d="M0 0 C3.96 0 7.92 0 12 0 C12 0.33 12 0.66 12 1 C10.37681021 1.36237263 8.7513642 1.71465157 7.125 2.0625 C6.22007812 2.25972656 5.31515625 2.45695313 4.3828125 2.66015625 C2 3 2 3 0 2 C0 1.34 0 0.68 0 0 Z "
     fill="#AD4D10"
     transform="translate(465,679)"
     id="path188" />
  <path
     d="M0 0 C1.68762851 1.6454378 3.3540349 3.31288577 5 5 C5 5.33 5 5.66 5 6 C6.65 6.33 8.3 6.66 10 7 C10 7.33 10 7.66 10 8 C7.25 8.3125 7.25 8.3125 4 8 C1.625 5.6875 1.625 5.6875 0 3 C0 2.01 0 1.02 0 0 Z "
     fill="#0D0F28"
     transform="translate(526,529)"
     id="path190" />
  <path
     d="M0 0 C5.75 1.75 5.75 1.75 8 4 C6.35 3.67 4.7 3.34 3 3 C3.33 4.65 3.66 6.3 4 8 C1.10067643 5.60490662 0.49831724 3.68754757 0 0 Z "
     fill="#8E4313"
     transform="translate(591,482)"
     id="path192" />
  <path
     d="M0 0 C2.64 0 5.28 0 8 0 C8 0.99 8 1.98 8 3 C5.36 3 2.72 3 0 3 C0 2.01 0 1.02 0 0 Z "
     fill="#112839"
     transform="translate(635,439)"
     id="path194" />
  <path
     d="M0 0 C0.99 0.33 1.98 0.66 3 1 C2.01 2.98 1.02 4.96 0 7 C-2 3.25 -2 3.25 -2 1 C-1.34 0.67 -0.68 0.34 0 0 Z "
     fill="#F0E9CD"
     transform="translate(582,1004)"
     id="path196" />
  <path
     d="M0 0 C0.33 0 0.66 0 1 0 C1.1953125 6.0546875 1.1953125 6.0546875 1 8 C0.34 8.66 -0.32 9.32 -1 10 C-2.38125018 7.23749964 -2.19079306 5.05268901 -2 2 C-1.34 1.34 -0.68 0.68 0 0 Z "
     fill="#1A2B38"
     transform="translate(266,558)"
     id="path198" />
  <path
     d="M0 0 C2.475 0.495 2.475 0.495 5 1 C5.33 1.99 5.66 2.98 6 4 C5.01 5.485 5.01 5.485 4 7 C3.01 6.67 2.02 6.34 1 6 C1.66 4.68 2.32 3.36 3 2 C2.01 1.34 1.02 0.68 0 0 Z "
     fill="#BAE8F7"
     transform="translate(646,396)"
     id="path200" />
  <path
     d="M0 0 C1.98 0 3.96 0 6 0 C6.33 0.66 6.66 1.32 7 2 C3.37 2.33 -0.26 2.66 -4 3 C-2.68 2.67 -1.36 2.34 0 2 C0 1.34 0 0.68 0 0 Z "
     fill="#0B102F"
     transform="translate(487,384)"
     id="path202" />
  <path
     d="M0 0 C2.97 0 5.94 0 9 0 C9 0.66 9 1.32 9 2 C9.66 2.33 10.32 2.66 11 3 C9.54077307 2.88590407 8.08259402 2.75834456 6.625 2.625 C5.40683594 2.52058594 5.40683594 2.52058594 4.1640625 2.4140625 C2 2 2 2 0 0 Z "
     fill="#08101A"
     transform="translate(425,757)"
     id="path204" />
  <path
     d="M0 0 C0.66 0.66 1.32 1.32 2 2 C1.67028521 5.29714793 1.3773161 6.6226839 -1 9 C-1.125 2.25 -1.125 2.25 0 0 Z "
     fill="#0F1922"
     transform="translate(272,515)"
     id="path206" />
  <path
     d="M0 0 C0.66 0.99 1.32 1.98 2 3 C-4.0546875 3.1953125 -4.0546875 3.1953125 -6 3 C-6.66 2.34 -7.32 1.68 -8 1 C-5.21136993 -0.39431504 -3.07921132 -0.25660094 0 0 Z "
     fill="#5CA9CE"
     transform="translate(674,368)"
     id="path208" />
  <path
     d="M0 0 C0.99 0.66 1.98 1.32 3 2 C1.35 3.65 -0.3 5.3 -2 7 C-2.66 6.67 -3.32 6.34 -4 6 C-2.68 4.02 -1.36 2.04 0 0 Z "
     fill="#152737"
     transform="translate(432,814)"
     id="path210" />
</svg>
