<?xml version="1.0" encoding="UTF-8" standalone="no"?>
<svg
   xmlns:dc="http://purl.org/dc/elements/1.1/"
   xmlns:cc="http://creativecommons.org/ns#"
   xmlns:rdf="http://www.w3.org/1999/02/22-rdf-syntax-ns#"
   xmlns:svg="http://www.w3.org/2000/svg"
   xmlns="http://www.w3.org/2000/svg"
   xmlns:sodipodi="http://sodipodi.sourceforge.net/DTD/sodipodi-0.dtd"
   xmlns:inkscape="http://www.inkscape.org/namespaces/inkscape"
   version="1.1"
   width="830"
   height="870"
   id="svg212"
   sodipodi:docname="capybara.svg"
   inkscape:version="0.92.4 (5da689c313, 2019-01-14)">
  <metadata
     id="metadata218">
    <rdf:RDF>
      <cc:Work
         rdf:about="">
        <dc:format>image/svg+xml</dc:format>
        <dc:type
           rdf:resource="http://purl.org/dc/dcmitype/StillImage" />
        <dc:title></dc:title>
      </cc:Work>
    </rdf:RDF>
  </metadata>
  <defs
     id="defs216" />
  <sodipodi:namedview
     pagecolor="#ffffff"
     bordercolor="#666666"
     borderopacity="1"
     objecttolerance="10"
     gridtolerance="10"
     guidetolerance="10"
     inkscape:pageopacity="0"
     inkscape:pageshadow="2"
     inkscape:window-width="1920"
     inkscape:window-height="991"
     id="namedview214"
     showgrid="false"
     inkscape:zoom="0.43457604"
     inkscape:cx="668.88164"
     inkscape:cy="746.08133"
     inkscape:window-x="-9"
     inkscape:window-y="-9"
     inkscape:window-maximized="1"
     inkscape:current-layer="svg212" />
  <g
     id="g267"
     transform="translate(-96.344824,637.22959)">
    <path
       style="fill:#072033"
       inkscape:connector-curvature="0"
       id="path4"
       d="m 349.55469,-616.04688 c 7.55357,4.5287 14.12901,9.90818 20.44531,16.04688 0.66129,0.59941 1.32258,1.19882 2.00391,1.8164 10.1202,9.46597 18.40623,22.04238 24.99609,34.1836 0,0.66 0,1.32 0,2 0.94617,-0.37512 1.89235,-0.75024 2.86719,-1.13672 35.18949,-13.72115 72.46926,-18.44622 110.07935,-18.2544 3.75061,0.0162 7.50015,-10e-6 11.25073,-0.019 35.07639,-0.0308 73.61293,4.56038 105.80273,19.41012 0.24492,-0.68707 0.48985,-1.37414 0.74219,-2.08203 1.47696,-3.42638 3.35584,-6.48751 5.38281,-9.60547 0.39816,-0.61505 0.79632,-1.23009 1.20655,-1.86377 3.56414,-5.42752 7.46808,-10.49643 11.66845,-15.44873 0.87785,-1.06154 0.87785,-1.06154 1.77344,-2.14453 4.03739,-4.77728 8.37631,-8.91204 13.22656,-12.85547 0.88559,-0.73477 1.77117,-1.46953 2.6836,-2.22656 14.04608,-11.1548 27.63529,-14.88702 45.3164,-13.77344 10.64505,1.6906 18.82121,9.5804 25,18 11.25316,19.67845 11.60474,44.50392 6,66 -5.86394,21.02856 -16.64172,37.64172 -32,52.99999 0.69038,0.16605 1.38075,0.3321 2.09204,0.50318 3.15839,0.76345 6.31441,1.5363 9.47046,2.30932 1.08604,0.26104 2.17207,0.52208 3.29102,0.79102 14.41428,3.54881 14.41428,3.54881 18.02148,7.39648 3.12608,5.55747 2.65957,11.81425 2.125,18 -2.13147,4.68923 -5.30561,7.28152 -9.41406,10.21485 -4.14842,4.66952 -4.36403,12.75103 -5.27344,18.72265 -0.14244,0.8553 -0.28488,1.71059 -0.43164,2.5918 -0.12955,0.84498 -0.2591,1.68996 -0.39258,2.56055 -0.11819,0.75144 -0.23638,1.50288 -0.35815,2.2771 -0.30913,6.25515 1.06813,11.83901 3.02222,17.73462 0.44668,1.37112 0.89295,2.74239 1.33886,4.11377 0.23554,0.71657 0.47108,1.43315 0.71375,2.17144 14.19984,43.38632 27.91109,90.73036 28.79504,136.61322 0.0258,1.00531 0.0516,2.01062 0.0781,3.04639 0.33212,14.2666 0.28777,28.03641 -3.07813,41.95361 -0.19867,0.82662 -0.39735,1.65323 -0.60205,2.50489 -6.06361,24.44522 -16.6316,45.65973 -33.39795,64.49511 1.63029,4.40686 3.7643,8.44347 6,12.5625 3.96458,7.34741 3.96458,7.34741 4.77808,9.41675 1.71555,2.8371 3.86709,4.06126 6.6477,5.84888 0.54344,0.3527 1.08687,0.7054 1.64678,1.06879 1.74105,1.12666 3.4903,2.23983 5.23994,3.35308 1.13401,0.73224 2.26748,1.4653 3.40039,2.19922 11.50123,7.42755 23.20983,14.52064 34.91675,21.61768 3.05889,1.85442 6.11692,3.71024 9.17505,5.56592 0.61378,0.3724 1.22755,0.74479 1.85992,1.12848 6.53374,3.96477 13.06116,7.93989 19.58832,11.91546 5.31159,3.23435 10.62564,6.46458 15.94238,9.69043 0.61716,0.3745 1.23432,0.74899 1.87018,1.13483 3.00193,1.82149 6.00412,3.64254 9.00678,5.46283 2.2083,1.33969 4.4156,2.68106 6.62182,4.02417 2.27732,1.38529 4.55722,2.76549 6.84034,4.14111 1.15399,0.69995 2.30788,1.40005 3.46167,2.10034 1.02279,0.61771 2.04558,1.23541 3.09936,1.87183 14.63952,9.56485 20.42227,21.23878 23.92886,37.92349 0.43336,2.09974 0.85965,4.20082 1.28428,6.30234 0.15044,0.73696 0.30089,1.47393 0.4559,2.23322 3.37339,16.5617 6.20129,33.20538 8.92148,49.88481 0.51392,3.14458 1.03285,6.28833 1.55174,9.43209 1.60167,9.70494 3.18696,19.4125 4.76228,29.12175 0.18879,1.1634 0.37758,2.3268 0.57209,3.52546 1.02777,6.34408 2.04694,12.68947 3.05291,19.03704 0.11434,0.72031 0.22867,1.44061 0.34647,2.18274 6.23408,39.41918 6.23408,39.41918 0.0285,49.25477 -2.3125,2.75 -2.3125,2.75 -5,5 -0.94875,0.8044 -1.8975,1.6087 -2.875,2.4375 -64.04867,43.1458 -189.40148,34.9351 -263.3545,38.0377 -8.92607,0.381 -17.84368,0.8535 -26.76269,1.3725 -64.06768,3.6529 -128.16146,2.9784 -192.25781,0.3398 -1.52187,-0.062 -1.52187,-0.062 -3.0745,-0.1258 -22.99992,-0.9472 -45.97979,-2.1391 -68.95284,-3.6008 -0.96783,-0.061 -1.93566,-0.1227 -2.93282,-0.1859 -15.12861,-0.9668 -30.22373,-2.1916 -45.31718,-3.5992 -5.60399,-0.5189 -11.20745,-0.956 -16.82202,-1.3406 -141.45133,-9.8273 -141.45133,-9.8273 -165.21314,-35.8977 -4.46082,-5.51978 -4.80358,-10.92945 -4.76953,-17.76954 0.004,-0.924 0.008,-1.848 0.0118,-2.8 0.18259,-11.00033 1.87525,-21.71583 3.63276,-32.55547 0.3577,-2.27394 0.71444,-4.54803 1.07032,-6.82226 0.9729,-6.17816 1.9703,-12.35213 2.97418,-18.52533 0.66397,-4.08705 1.31853,-8.17558 1.97259,-12.26422 8.88672,-55.48357 8.88672,-55.48357 14.10791,-79.70069 0.23324,-1.09513 0.23324,-1.09513 0.47119,-2.2124 4.46328,-20.73434 4.46328,-20.73434 11.15381,-27.9126 0.6716,-0.74507 1.34321,-1.49015 2.03516,-2.25781 7.8548,-7.08306 16.77975,-12.50116 25.92288,-17.74121 3.21614,-1.84436 6.41972,-3.71032 9.62399,-5.57519 0.63678,-0.37016 1.27355,-0.74031 1.92961,-1.12168 5.38516,-3.13781 10.70236,-6.37686 15.98836,-9.67911 7.41136,-4.62927 14.856,-9.19942 22.33072,-13.72564 3.59141,-2.17543 7.18006,-4.35542 10.76912,-6.53473 2.92182,-1.77396 5.84435,-3.54669 8.76881,-5.31629 6.52414,-3.95238 13.01457,-7.95248 19.47461,-12.00878 3.04793,-1.8859 6.13098,-3.70004 9.22315,-5.51221 13.1468,-7.97306 20.30051,-16.11751 26.4375,-30.25855 0.56092,-2.77336 -0.0551,-3.80097 -1.56641,-6.1438 -1.47533,-1.91509 -2.97927,-3.80825 -4.5,-5.6875 -12.64981,-16.16724 -21.02612,-34.34816 -26.375,-54.125 -0.19118,-0.70302 -0.38237,-1.40604 -0.57934,-2.13037 -3.04559,-12.11321 -3.938,-24.48079 -3.92066,-36.93213 5.5e-4,-0.67697 10e-4,-1.35395 0.002,-2.05145 0.17764,-49.04062 13.75973,-98.09538 28.4383,-144.53619 0.24743,-0.7829 0.49486,-1.5658 0.74978,-2.37242 0.45855,-1.44549 0.91979,-2.89012 1.38446,-4.33365 0.61846,-1.93878 1.21619,-3.88205 1.80082,-5.83129 0.20462,-0.67234 0.40924,-1.34468 0.62007,-2.03739 1.25817,-4.47935 1.46947,-7.96894 0.73539,-12.54464 -0.1824,-1.17884 -0.3648,-2.35769 -0.55273,-3.57226 -0.30454,-1.81081 -0.30454,-1.81081 -0.61523,-3.65821 -0.19143,-1.22654 -0.38286,-2.45308 -0.58008,-3.71679 -0.95993,-6.31662 -0.95993,-6.31662 -2.60742,-12.47071 -1.31136,-0.70891 -2.64871,-1.37053 -4,-2 -4.34814,-3.20807 -6.71699,-6.24755 -7.58985,-11.65234 -0.29669,-12.06931 -0.29669,-12.06931 4.58985,-17.34766 6.50776,-3.6086 13.92115,-5.14127 21.125,-6.75 0.95648,-0.22042 1.91296,-0.44085 2.89843,-0.66796 2.32399,-0.53452 4.64936,-1.06174 6.97657,-1.58204 -0.53368,-0.48726 -1.06735,-0.97453 -1.61719,-1.47656 -20.2793,-19.29698 -32.69568,-46.23238 -33.58586,-74.25 -0.31794,-19.7678 2.65753,-37.42488 16.9375,-52.21484 14.09551,-12.80747 35.7677,-12.20166 51.82031,-3.10547 z" />
    <path
       style="fill:#d07b23"
       inkscape:connector-curvature="0"
       id="path6"
       d="m 507.86304,-451.33618 c 2.06884,0.0236 4.13638,0.0205 6.20532,0.0139 21.98691,0.0396 21.98691,0.0396 27.18384,4.06811 1.96333,2.53212 2.67452,4.45406 3.45874,7.55103 0.27167,1.03286 0.54334,2.06572 0.82324,3.12988 0.27747,1.09667 0.55494,2.19334 0.84082,3.32324 6.01963,22.43447 14.34913,44.34443 29.625,62.25 0.51176,0.65742 1.02352,1.31484 1.55078,1.99219 8.48806,9.86985 23.02612,14.27003 35.44922,16.00783 1.26457,0.18176 2.52914,0.36352 3.83203,0.55078 7.43881,0.789 14.94534,0.69272 22.41797,0.69922 0.80136,10e-4 1.60271,0.002 2.42835,0.003 12.66185,-0.0108 24.89326,-0.6571 37.32165,-3.25305 0.73574,-0.14454 1.47147,-0.28907 2.2295,-0.43799 12.49145,-2.50328 22.92072,-5.90729 30.52832,-16.60888 1.26966,-1.92254 1.26966,-1.92254 2.24218,-3.95313 0.66,0 1.32,0 2,0 17.45223,65.52416 17.45223,65.52416 22,99 0.10458,0.762 0.20915,1.524 0.3169,2.30908 0.9044,7.6219 0.90432,15.28231 0.92334,22.94727 0.01,2.3433 0.0408,4.68571 0.0723,7.02881 0.22884,32.59869 -12.24833,63.18888 -34.76367,86.70288 -33.02655,33.39484 -76.84202,50.36349 -121.54883,62.01196 -1.45479,0.3889 -1.45479,0.3889 -2.93896,0.78565 -7.30094,1.90391 -14.6007,3.23182 -22.06104,4.33935 -1.08539,0.16887 -2.17078,0.33774 -3.28906,0.51172 -32.68368,4.95326 -66.35759,3.84798 -98.71094,-2.63672 -1.10263,-0.20867 -2.20526,-0.41733 -3.34131,-0.63232 -46.98221,-9.00666 -94.59034,-28.24439 -129.65869,-61.36768 -0.82113,-0.75668 -1.64226,-1.51336 -2.48828,-2.29297 -21.19543,-20.20653 -34.63873,-50.03716 -35.63476,-79.32519 -0.41324,-18.32709 -0.16142,-36.30178 3.12304,-54.38184 0.20448,-1.17643 0.40896,-2.35286 0.61963,-3.56494 4.85639,-27.5265 12.13704,-54.45793 19.38037,-81.43506 0.66,0 1.32,0 2,0 1.11928,1.66388 2.19442,3.3575 3.25,5.0625 8.04622,11.25891 21.76885,14.5073 34.75,16.9375 1.18723,0.22559 2.37446,0.45117 3.59766,0.68359 10.1273,1.51858 20.30765,1.52389 30.52734,1.56641 0.72049,0.005 1.44097,0.0107 2.18329,0.0162 21.41142,0.12056 45.36538,-1.7568 61.74249,-17.13733 18.79575,-20.52842 28.49183,-49.60748 34.94922,-76.1289 0.33,-0.99 0.66,-1.98 1,-3 8.12179,-3.52407 17.16684,-3.44198 25.863,-3.33624 z" />
    <path
       style="fill:#d07b23"
       inkscape:connector-curvature="0"
       id="path8"
       d="m 507.86304,-451.33618 c 2.06884,0.0236 4.13638,0.0205 6.20532,0.0139 21.98691,0.0396 21.98691,0.0396 27.18384,4.06811 1.96333,2.53212 2.67452,4.45406 3.45874,7.55103 0.27167,1.03286 0.54334,2.06572 0.82324,3.12988 0.27747,1.09667 0.55494,2.19334 0.84082,3.32324 6.01963,22.43447 14.34913,44.34443 29.625,62.25 0.51176,0.65742 1.02352,1.31484 1.55078,1.99219 4.75126,5.52471 11.33339,8.25216 17.80469,11.30859 0.63728,0.30116 1.27456,0.60232 1.93115,0.9126 1.36338,0.62593 2.74829,1.20492 4.13916,1.76709 2.15897,1.39824 2.02919,2.54589 2.57422,5.01953 1.59616,5.27585 3.51201,10.34005 5.75244,15.37329 7.62916,17.22069 12.357,34.75214 15.62256,53.25171 0.12756,0.71866 0.25512,1.43733 0.38654,2.17777 5.8503,33.39106 8.68511,74.97517 -11.69904,104.13473 -1.32922,1.70722 -2.68163,3.39678 -4.0625,5.0625 -0.54269,0.66774 -1.08539,1.33547 -1.64453,2.02344 -6.16448,6.86944 -15.38154,11.14517 -24.35547,12.97658 -2.9375,0.125 -2.9375,0.125 -5,0 -0.2475,0.70125 -0.495,1.4025 -0.75,2.125 -1.43243,3.29459 -3.14903,5.95699 -5.25,8.875 -0.36351,0.53496 -0.72703,1.06992 -1.10156,1.6211 -10.05014,13.3488 -27.56193,18.68321 -43.34106,20.97973 -6.12214,0.68696 -12.21393,0.78205 -18.36988,0.77417 -1.97468,-0.002 -1.97468,-0.002 -3.98925,-0.005 -9.6924,-0.12214 -18.06783,-1.09048 -27.19825,-4.37012 -1.34385,-0.41572 -1.34385,-0.41572 -2.71484,-0.83984 -13.71738,-4.70248 -24.33316,-14.60442 -31.28516,-27.16016 0,-0.66 0,-1.32 0,-2 -0.72703,-0.0748 -1.45406,-0.14953 -2.20312,-0.22656 -12.05682,-1.57666 -22.90312,-6.40943 -30.59766,-16.02344 -14.89464,-20.41235 -17.63194,-43.49299 -17.57422,-68.0625 5.5e-4,-0.87567 10e-4,-1.75135 0.002,-2.65356 0.0427,-15.0131 1.1833,-29.32303 4.37335,-44.03394 0.20899,-0.99806 0.41798,-1.99611 0.6333,-3.02441 2.92661,-13.67504 7.18429,-26.59475 12.31592,-39.59278 1.70838,-4.35557 3.12596,-8.73597 4.39356,-13.23852 0.89471,-2.91913 2.10832,-5.5179 3.65722,-8.14429 0.99,-0.495 0.99,-0.495 2,-1 -0.495,-0.99 -0.495,-0.99 -1,-2 -2.02463,-0.65213 -2.02463,-0.65213 -4,-1 1.03899,-0.36351 2.07797,-0.72703 3.14844,-1.10156 24.11678,-8.60941 35.39949,-23.72046 46.17554,-46.43213 6.02923,-13.2159 10.32295,-27.14643 14.04736,-41.16699 0.48737,-1.78256 1.04428,-3.54617 1.62866,-5.29932 8.12148,-3.52389 17.16653,-3.4418 25.86269,-3.33606 z" />
    <path
       style="fill:#0a3b62"
       inkscape:connector-curvature="0"
       id="path10"
       d="m 714,-111 c 4.01709,4.49243 6.44097,9.5073 9.0625,14.875 0.48259,0.97687 0.96519,1.95374 1.4624,2.9602 3.69783,7.51043 7.31855,15.05757 10.91553,22.6167 4.41191,9.26734 8.8882,18.50294 13.37207,27.7356 0.36249,0.74712 0.72498,1.49424 1.09845,2.26401 1.05622,2.17671 2.11341,4.35295 3.17108,6.52896 0.33484,0.6895 0.66967,1.379 1.01465,2.0894 2.56373,5.26619 5.19916,10.49249 7.87866,15.70088 C 763,-14 763,-14 763,-12 c -0.67764,0.36126 -1.35529,0.72252 -2.05347,1.09473 C 748.93779,-4.4944 736.95076,1.94321 725.125,8.6875 c -0.86585,0.4921 -1.73169,0.9842 -2.62378,1.49121 -0.8022,0.46052 -1.6044,0.92104 -2.43091,1.39551 -0.69335,0.39792 -1.38671,0.79583 -2.10107,1.20581 C 715.88054,14.074 713.94365,15.49864 712,17 c 0.59949,0.59426 1.19899,1.18852 1.81665,1.80078 2.2591,2.24188 4.5158,4.48614 6.771,6.73193 0.96977,0.9648 1.94045,1.9287 2.91211,2.89161 5.19277,5.14725 10.29748,10.30194 15.01172,15.89502 1.56691,1.76917 3.24912,3.33252 4.98852,4.93066 0.825,0.9075 1.65,1.815 2.5,2.75 -0.31136,3.43675 -2.0788,6.11457 -3.80859,9.04297 -0.57726,0.98299 -1.15452,1.96598 -1.74927,2.97876 -0.62028,1.0447 -1.24056,2.08941 -1.87964,3.16577 -0.95072,1.61443 -0.95072,1.61443 -1.92065,3.26147 -1.28123,2.1748 -2.5645,4.3484 -3.84986,6.52076 -1.54858,2.61866 -3.09077,5.24083 -4.62793,7.86621 -4.14984,7.08564 -8.34064,14.14519 -12.57739,21.1792 -2.6873,4.46787 -5.33995,8.95532 -7.98389,13.44897 -5.9821,10.16456 -12.06342,20.26515 -18.20007,30.33679 -5.31013,8.71723 -10.54043,17.4776 -15.70447,26.2824 -4.42326,7.5152 -9.00353,14.9282 -13.65039,22.3071 -0.77392,1.2357 -0.77392,1.2357 -1.56348,2.4963 -0.68497,1.0861 -0.68497,1.0861 -1.38378,2.1941 -1.24618,2.0266 -1.24618,2.0266 -2.10059,4.9192 -0.98932,0.053 -0.98932,0.053 -1.99863,0.1072 -6.84548,0.3679 -13.6906,0.7419 -20.53555,1.1196 -2.55688,0.1403 -5.11385,0.2789 -7.6709,0.416 -3.66886,0.197 -7.33737,0.3996 -11.00586,0.6033 -1.14899,0.06 -2.29797,0.1209 -3.48178,0.1832 -1.59142,0.09 -1.59142,0.09 -3.21499,0.1818 -0.9371,0.051 -1.8742,0.1021 -2.8397,0.1548 -2.28566,0.1038 -2.28566,0.1038 -4.25259,1.2341 -1.8738,0.07 -3.75001,0.084 -5.625,0.062 -1.00289,-0.01 -2.00578,-0.018 -3.03906,-0.027 -1.15629,-0.017 -1.15629,-0.017 -2.33594,-0.035 5.27583,-12.8032 10.65276,-25.5565 16.1875,-38.25 12.09322,-27.77399 23.57319,-55.7996 34.7124,-83.96851 1.21476,-3.0714 2.43091,-6.14225 3.64697,-9.21313 14.37891,-36.32985 28.34699,-72.7443 41.34375,-109.5918 13.48835,-38.23231 13.48835,-38.23231 19.40552,-53.71362 2.5177,-6.63114 4.71119,-13.31987 6.7312,-20.11841 0.86234,-2.78788 1.84341,-5.45561 2.97266,-8.14453 z" />
    <path
       style="fill:#0b3b62"
       inkscape:connector-curvature="0"
       id="path12"
       d="m 309,-111 c 2.66771,2.66771 3.37891,5.68051 4.50391,9.19141 0.239,0.72823 0.47801,1.45647 0.72425,2.20677 0.51446,1.56838 1.02639,3.13759 1.53606,4.70753 1.34436,4.13741 2.70986,8.26781 4.07562,12.3982 0.40763,1.23407 0.40763,1.23407 0.82349,2.49307 3.21188,9.69319 6.69268,19.28401 10.19946,28.87362 2.13904,5.88627 4.22657,11.79097 6.32471,17.6919 3.02124,8.48309 6.09936,16.93725 9.29883,25.35449 1.34504,3.58808 2.60482,7.20181 3.85164,10.825 3.88116,11.26175 8.10665,22.36495 12.47453,33.44551 0.76541,1.94839 1.53079,3.8968 2.29614,5.84521 15.46798,39.32031 31.04662,78.60673 47.45581,117.54493 2.4686,5.88516 4.87423,11.79566 7.2793,17.70706 3.29828,8.095 6.67086,16.1588 10.05981,24.2163 0.40437,0.9652 0.80873,1.9303 1.22535,2.9248 0.36166,0.8602 0.72332,1.7204 1.09594,2.6067 C 433,209 433,209 433,210 c -27.12354,1.15 -53.9064,0.6697 -81,-1 0,-0.33 0,-0.66 0,-1 5.28,-0.66 10.56,-1.32 16,-2 -1.82531,-3.0319 -1.82531,-3.0319 -3.6875,-6.125 -5.59299,-9.3105 -11.10851,-18.6665 -16.62744,-28.021 -1.63641,-2.7716 -3.27545,-5.5416 -4.91553,-8.31103 -4.99421,-8.43582 -9.97248,-16.87993 -14.8999,-25.35498 -10.34183,-17.78632 -20.95558,-35.40552 -31.63736,-52.98914 -1.09377,-1.80161 -2.18605,-3.60411 -3.27792,-5.40686 -2.99167,-4.93653 -5.98912,-9.86745 -9.06373,-14.75293 -0.65379,-1.05066 -0.65379,-1.05066 -1.3208,-2.12256 -1.09006,-1.74847 -2.19257,-3.48917 -3.29638,-5.229 C 278,55 278,55 278.22498,53.04776 c 0.92342,-2.43985 2.04457,-3.67295 3.90197,-5.49942 0.65738,-0.65393 1.31477,-1.30785 1.99207,-1.9816 1.0703,-1.04237 1.0703,-1.04237 2.16223,-2.1058 1.09302,-1.0831 1.09302,-1.0831 2.20813,-2.18808 2.3299,-2.30648 4.66971,-4.60257 7.01062,-6.89786 2.33916,-2.30413 4.67618,-4.61037 7.01062,-6.91928 1.45365,-1.43663 2.91036,-2.87017 4.37036,-4.30036 0.65738,-0.64762 1.31476,-1.29524 1.99207,-1.96249 0.581,-0.56973 1.16201,-1.13947 1.76062,-1.72647 C 312.10466,18.02612 312.10466,18.02612 313,16 c -0.88559,-0.27151 -1.77117,-0.54302 -2.68359,-0.82275 -3.07722,-1.09234 -5.58699,-2.34052 -8.37891,-4.01319 -0.95197,-0.56445 -1.90395,-1.12889 -2.88477,-1.71045 C 297.54163,8.54845 297.54163,8.54845 296,7.625 284.47858,0.80573 272.79594,-5.6697 261,-12 c 1.29182,-3.30737 2.68363,-6.52711 4.22266,-9.72656 0.67095,-1.39702 0.67095,-1.39702 1.35546,-2.82227 0.73477,-1.5227 0.73477,-1.5227 1.48438,-3.07617 0.51949,-1.07959 1.03898,-2.15918 1.57422,-3.27148 5.32384,-11.05008 10.6887,-22.08031 16.05591,-33.10938 3.31484,-6.81425 6.62198,-13.63169 9.88549,-20.4707 0.54077,-1.13244 1.08153,-2.26489 1.63868,-3.43164 0.98306,-2.06257 1.96375,-4.12627 2.9414,-6.19141 2.74372,-5.75817 5.67007,-11.36604 8.8418,-16.90039 z" />
    <path
       style="fill:#d07c23"
       inkscape:connector-curvature="0"
       id="path14"
       d="m 506.37329,-559.31567 c 3.52758,0.003 7.05431,-0.0203 10.58179,-0.0456 24.4575,-0.0685 48.27066,2.596 72.04492,8.36132 1.17031,0.28183 1.17031,0.28183 2.36426,0.56934 21.97285,5.45669 41.43795,15.52397 57.63574,31.43061 0.80953,0.78504 1.61906,1.57008 2.45312,2.37891 C 657.59204,-510.29878 670,-497.21613 670,-488 c -1.30969,-0.005 -2.61938,-0.0105 -3.96875,-0.0159 -4.93522,-0.0183 -9.87043,-0.0297 -14.80567,-0.0391 -2.12175,-0.005 -4.24349,-0.0118 -6.36523,-0.0205 -16.54407,-0.0664 -32.80621,0.1113 -49.17285,2.82544 -1.06179,0.17411 -2.12357,0.34821 -3.21753,0.52759 -6.66122,1.13597 -13.23907,2.47121 -19.78247,4.15991 -0.70874,0.1808 -1.41749,0.36159 -2.14771,0.54786 -3.13219,0.85885 -6.04423,1.76641 -8.95768,3.22581 -9.26579,4.5567 -17.7484,4.52224 -27.83211,4.4529 -1.74773,0.003 -3.49545,0.008 -5.24316,0.0145 -3.64444,0.007 -7.28826,-0.003 -10.93262,-0.0267 -4.63993,-0.0285 -9.2784,-0.0121 -13.91828,0.0179 -3.60348,0.0182 -7.20662,0.0123 -10.81012,-6.4e-4 -1.70939,-0.003 -3.41881,6.4e-4 -5.12817,0.0124 -10.44059,0.0561 -18.21317,-0.92051 -27.71765,-5.68148 -2.86452,-1.00129 -5.74803,-1.81251 -8.6875,-2.5625 -0.78399,-0.2027 -1.56798,-0.40541 -2.37573,-0.61426 -6.85844,-1.69652 -13.77794,-2.93976 -20.74927,-4.07324 -1.00055,-0.16315 -2.00111,-0.32629 -3.03198,-0.49438 -16.00015,-2.45684 -31.88575,-2.38121 -48.03052,-2.31812 -2.2487,0.005 -4.4974,0.01 -6.74609,0.0137 -5.45966,0.0109 -10.91928,0.0276 -16.37891,0.0488 3.96672,-10.14889 9.99847,-18.72546 17,-27 0.7193,-0.92039 0.7193,-0.92039 1.45312,-1.85937 21.7191,-27.21129 59.86912,-35.82694 92.54688,-40.14063 1.87111,-0.26599 1.87111,-0.26599 3.78003,-0.53735 12.5142,-1.66744 24.98253,-1.80169 37.59326,-1.77833 z" />
    <path
       style="fill:#b52b1c"
       inkscape:connector-curvature="0"
       id="path16"
       d="m 498.32642,28.88647 c 1.47584,2.5e-4 2.95168,0.006 4.42749,0.0159 0.68703,10e-4 1.37406,0.002 2.08191,0.003 2.5756,0.005 5.15111,0.0192 7.72668,0.0321 3.1106,0.0119 6.22119,0.0226 9.33179,0.0334 1.54537,0.006 3.09073,0.0111 4.63609,0.0166 1.14498,0.004 2.28995,0.008 3.46962,0.0124 0.13109,0.60942 0.26217,1.21885 0.39722,1.84674 6.48726,30.14908 13.04,60.28196 19.77857,90.37591 0.29706,1.32714 0.59411,2.65429 0.89117,3.98143 2.38778,10.66625 4.77991,21.33153 7.17462,31.99623 1.82145,8.11182 3.64046,16.22422 5.45571,24.33742 0.83742,3.7382 1.67846,7.4756 2.51959,11.213 0.50384,2.2511 1.00749,4.5023 1.51091,6.7535 0.23204,1.0263 0.46409,2.0527 0.70317,3.1102 0.20839,0.9356 0.41679,1.8711 0.6315,2.835 0.18222,0.8116 0.36444,1.6232 0.55219,2.4594 C 570,210 570,210 570,213 c -5.71003,0.817 -11.22842,1.1441 -16.99194,1.1294 -0.86144,0 -1.72287,0 -2.61041,0 -2.82919,0 -5.65831,0.001 -8.48749,0 -1.98808,7e-4 -3.97617,0 -5.96425,0 -4.165,0 -8.32998,-7e-4 -12.49498,0 -5.29149,-0.01 -10.58292,0 -15.87441,0 -4.10885,0 -8.21769,0 -12.32655,-1e-4 -1.94808,-7e-4 -3.89617,1e-4 -5.84425,0 -11.84099,0.011 -23.5939,-0.285 -35.40572,-1.1363 3.32623,-15.9624 6.7965,-31.8926 10.28609,-47.8199 0.4699,-2.14498 0.93954,-4.29007 1.4091,-6.43517 4.55402,-20.80271 9.13747,-41.59858 13.77747,-62.38229 1.70747,-7.65002 3.41213,-15.30067 5.11511,-22.95169 0.63684,-2.85945 1.27498,-5.7186 1.91321,-8.57773 0.40094,-1.79984 0.80166,-3.59972 1.20215,-5.39966 0.19314,-0.86717 0.38627,-1.73434 0.58526,-2.62779 0.98353,-4.43842 1.94146,-8.88072 2.862,-13.33266 0.27418,-1.32438 0.27418,-1.32438 0.5539,-2.67552 0.34608,-1.68112 0.68872,-3.36295 1.02746,-5.04556 1.38084,-6.72175 1.38084,-6.72175 5.59467,-6.86556 z" />
    <path
       style="fill:#62b5dd"
       inkscape:connector-curvature="0"
       id="path20"
       d="m 637.8125,-469.125 c 1.10961,0.003 1.10961,0.003 2.24164,0.006 48.49923,0.14437 48.49923,0.14437 57.50836,8.49429 10.83166,13.83856 8.71354,37.55953 6.97656,53.82812 -1.37712,9.94385 -4.314,20.13319 -11.72656,27.29688 -14.35878,10.52977 -35.64013,9.77976 -52.625,9.875 -1.02713,0.0118 -1.02713,0.0118 -2.07501,0.0238 C 620.71703,-369.44586 602.03953,-371.33912 589,-384 c -14.81961,-17.06926 -25.37354,-42.7611 -26.3125,-65.375 0.34024,-3.94684 0.9715,-5.49027 3.3125,-8.625 20.53894,-12.14979 48.64469,-11.21503 71.8125,-11.125 z" />
    <path
       style="fill:#63b5dd"
       inkscape:connector-curvature="0"
       id="path24"
       d="m 383.1875,-469.25 c 0.8749,-6.7e-4 1.7498,-10e-4 2.65121,-0.002 58.35432,0.0711 58.35432,0.0711 73.86124,13.7518 2.33414,2.69357 1.81369,5.53145 1.71411,8.95336 -2.71763,23.27932 -13.72303,51.91664 -32.35156,66.98438 -20.62821,13.96618 -53.07767,11.62238 -76.55859,8.25781 -9.61666,-1.90832 -19.062,-4.67343 -25.27735,-12.77344 -11.27891,-17.67268 -10.47579,-44.6197 -6.20703,-64.48046 2.01025,-7.05594 4.73829,-12.36231 10.98047,-16.44145 2.77546,-0.86433 5.56267,-1.28665 8.4375,-1.6875 0.71865,-0.11666 1.4373,-0.23332 2.17773,-0.35352 13.43385,-2.05869 27.01241,-2.19951 40.57227,-2.20898 z" />
    <path
       style="fill:#082034"
       inkscape:connector-curvature="0"
       id="path30"
       d="m 515,-250 c 3.59207,3.68915 5.10018,6.34632 5.21094,11.41016 0.0262,0.89944 0.0524,1.79888 0.0793,2.72558 0.028,0.96583 0.0559,1.93166 0.0847,2.92676 0.61122,16.04604 1.58252,34.89502 13.625,46.9375 13.64317,10.57405 30.49778,10.47955 46.96094,8.53125 10.22627,-2.0404 18.34691,-6.41165 24.5,-14.94141 2.7477,-4.62367 4.68905,-9.55135 6.53906,-14.58984 0.33,0 0.66,0 1,0 0.54593,12.90021 -1.21465,21.63288 -9,32 -0.72187,1.03125 -1.44375,2.0625 -2.1875,3.125 -4.47469,5.19875 -11.26877,9.16425 -17.75,11.25 -3.99329,2.11889 -4.60529,4.25363 -6.17578,8.35547 -1.21475,3.10911 -2.90646,5.59035 -4.88672,8.26953 -0.54141,0.79471 -0.54141,0.79471 -1.09375,1.60547 -10.03085,13.36428 -27.57473,18.69956 -43.34888,20.99536 -6.12213,0.68696 -12.21393,0.78205 -18.36987,0.77417 -1.97468,-0.002 -1.97468,-0.002 -3.98926,-0.005 -9.69233,-0.12203 -18.06776,-1.09036 -27.19818,-4.37 -0.8959,-0.27715 -1.7918,-0.5543 -2.71484,-0.83984 C 462.35935,-130.61378 451.70107,-140.56322 445,-153.5 c -2,-4.1579 -2,-4.1579 -2,-6.5 -0.62906,-0.14695 -1.25813,-0.29391 -1.90625,-0.44531 C 434.56129,-162.15713 430.05443,-164.55887 425,-169 c -0.59555,-0.47953 -1.19109,-0.95906 -1.80469,-1.45313 C 416.94828,-175.95051 411.36846,-185.671 410,-194 c -0.11535,-1.87249 -0.17486,-3.749 -0.1875,-5.625 -0.0142,-0.96164 -0.0284,-1.92328 -0.043,-2.91406 C 410,-205 410,-205 412,-207 c 0.27973,0.76184 0.55945,1.52367 0.84766,2.30859 4.4116,11.36237 9.70875,19.63601 21.15234,24.69141 7.45588,2.86262 14.36619,3.51382 22.3125,3.4375 1.10142,-0.008 2.20285,-0.0151 3.33765,-0.023 C 471.164,-176.81864 481.49193,-178.58927 490,-187 c 12.28775,-13.29025 13.33961,-31.97728 13.53394,-49.19409 0.18737,-8.92452 0.18737,-8.92452 3.46606,-12.80591 2.8747,-1.43735 4.81895,-1.38173 8,-1 z" />
    <path
       style="fill:#fde8b8"
       inkscape:connector-curvature="0"
       id="path32"
       d="m 329,-120 c 3.80881,1.38877 6.97938,3.17018 10.375,5.375 43.72496,27.37702 94.0539,40.38459 144.625,47.625 -7.15448,7.18297 -14.53416,14.08474 -22.4375,20.4375 -5.41662,4.35991 -10.48188,9.03726 -15.5625,13.77734 -2.96278,2.76237 -5.99281,5.43793 -9.05469,8.08985 -5.94116,5.17764 -11.74631,10.51185 -17.57031,15.82031 -3.05632,2.78313 -6.12457,5.5448 -9.25,8.25 -3.56524,3.09766 -7.03499,6.29141 -10.5,9.5 -1.67244,1.54616 -3.345,3.09218 -5.01758,4.63818 -1.04114,0.96303 -2.08155,1.92685 -3.12109,2.89161 -1.36613,1.26557 -2.73856,2.52434 -4.11133,3.78271 -0.77602,0.71543 -1.55203,1.43086 -2.35156,2.16797 C 383,24 383,24 380,25 365.19792,-16.38404 350.42585,-57.77853 335.87909,-99.25317 c -0.62304,-1.7762 -1.24653,-3.55225 -1.87048,-5.32813 -0.84955,-2.41895 -1.69701,-4.83861 -2.54377,-7.25854 -0.25218,-0.7172 -0.50437,-1.4344 -0.7642,-2.17333 C 329,-118.88522 329,-118.88522 329,-120 Z" />
    <path
       style="fill:#fde8b8"
       inkscape:connector-curvature="0"
       id="path34"
       d="m 693,-120 c 1.35069,4.05207 -0.003,6.71065 -1.36719,10.57422 -0.39845,1.16176 -0.39845,1.16176 -0.80494,2.34698 -0.89192,2.59199 -1.79719,5.17909 -2.70287,7.7663 -0.63607,1.83712 -1.27156,3.67445 -1.90649,5.51196 C 684.16142,-87.86148 682.08313,-81.92997 680,-76 c -0.51932,1.47908 -0.51932,1.47908 -1.04913,2.98804 C 673.67467,-57.99346 668.34521,-42.99405 663,-28 c -0.71714,2.01269 -1.43426,4.02539 -2.15137,6.03809 C 648.39052,12.9977 648.39052,12.9977 644,25 c -3.03727,-1.3661 -5.20915,-2.93074 -7.60938,-5.23047 -0.67289,-0.63873 -1.34578,-1.27746 -2.03906,-1.93555 C 633.31129,16.83335 633.31129,16.83335 632.25,15.8125 627.57065,11.34221 622.85019,6.96055 617.95996,2.72144 614.73594,-0.11022 611.62221,-3.05713 608.5,-6 604.04767,-10.17666 599.58033,-14.31346 594.95312,-18.29687 592.43388,-20.49366 589.96897,-22.7469 587.5,-25 c -3.14084,-2.86472 -6.29101,-5.71186 -9.5,-8.5 -3.20899,-2.78814 -6.35916,-5.63528 -9.5,-8.5 -5.62032,-5.12056 -11.3087,-10.14277 -17.10547,-15.0625 -0.64026,-0.54479 -1.28052,-1.08958 -1.94018,-1.65088 -1.29221,-1.09866 -2.58661,-2.19473 -3.88331,-3.28809 C 544.02887,-63.31287 542.51186,-64.65376 541,-66 c 0,-0.33 0,-0.66 0,-1 1.41418,-0.20194 1.41418,-0.20194 2.85693,-0.40796 C 595.18407,-74.8312 650.9547,-88.09628 693,-120 Z" />
    <path
       style="fill:#fde8b8"
       inkscape:connector-curvature="0"
       id="path38"
       d="m 567,-12 c 3.86101,2.14501 6.91139,4.60325 10.125,7.625 3.65888,3.38495 7.36014,6.63357 11.25,9.75 5.43391,4.38444 10.52326,9.08 15.625,13.83984 2.96144,2.76112 5.98986,5.43571 9.05078,8.08594 4.03018,3.51328 7.9801,7.11733 11.94922,10.69922 3.33276,3.00063 6.6663,6.0004 10,9 -12.11494,33.86706 -25.95593,67.10439 -40.19348,100.12726 -0.81624,1.8953 -1.62956,3.79184 -2.44226,5.68866 -1.52866,3.56546 -3.07002,7.12533 -4.61426,10.68408 -0.45423,1.0578 -0.90847,2.1155 -1.37647,3.2053 -0.41717,0.9532 -0.83434,1.9064 -1.26416,2.8884 -0.54188,1.2482 -0.54188,1.2482 -1.09472,2.5215 C 583,174 583,174 581,175 c -0.27403,-1.2365 -0.27403,-1.2365 -0.55359,-2.4979 -1.7623,-7.9508 -3.52575,-15.9013 -5.29034,-23.85158 -0.90612,-4.08268 -1.81187,-8.16544 -2.71662,-12.24842 -3.84638,-17.35688 -7.72026,-34.70654 -11.69336,-52.03491 -2.61657,-11.41211 -5.22962,-22.82426 -7.71264,-34.26636 -0.32384,-1.48756 -0.65049,-2.97451 -0.9795,-4.46094 C 550.97621,40.7703 549.96235,35.89374 549,31 548.79037,30.04682 548.58073,29.09364 548.36475,28.11157 547.1084,20.86586 549.81828,16.19906 553.5,10.0625 554.32516,8.6227 554.32516,8.6227 555.16699,7.15381 558.91909,0.65657 562.78248,-5.79252 567,-12 Z" />
    <path
       style="fill:#fde8b7"
       inkscape:connector-curvature="0"
       id="path40"
       d="m 455,-12 c 3.92373,1.30791 4.25636,2.73782 6.21484,6.32031 0.90589,1.63969 0.90589,1.63969 1.83008,3.3125 0.62455,1.15242 1.2491,2.30485 1.89258,3.49219 1.23819,2.25265 2.47647,4.50526 3.71484,6.75781 0.57734,1.07283 1.15468,2.14565 1.74951,3.25098 1.27492,2.28651 2.63039,4.38931 4.10206,6.5459 4.05403,8.9972 -1.36263,22.3898 -3.45313,31.66797 -0.4042,1.81424 -0.80781,3.62862 -1.21086,5.44313 -0.84673,3.80873 -1.69644,7.61678 -2.54836,11.42436 -1.25897,5.63167 -2.50521,11.26609 -3.74713,16.90155 -0.2012,0.91295 -0.4024,1.8259 -0.60971,2.76652 -0.4064,1.84424 -0.81277,3.68849 -1.21912,5.53275 -1.01997,4.6267 -2.04259,9.25283 -3.06521,13.87895 -0.4091,1.85083 -0.8182,3.70166 -1.22729,5.55249 -0.20315,0.91904 -0.4063,1.83808 -0.6156,2.78498 -0.83801,3.79146 -1.67571,7.58299 -2.51341,11.37452 -0.82443,3.7314 -1.64898,7.46277 -2.47357,11.19413 -0.38468,1.74071 -0.76933,3.48142 -1.15396,5.22215 C 448.11928,152.95063 445.56339,164.4761 443,176 c -2.41483,-2.4148 -3.28865,-4.6196 -4.66016,-7.7539 -0.26129,-0.5949 -0.52259,-1.1897 -0.7918,-1.8026 -0.87579,-1.9996 -1.74364,-4.00251 -2.61054,-6.006 -0.30473,-0.70088 -0.60947,-1.40175 -0.92343,-2.12387 C 422.41311,131.6213 411.38869,104.6894 400.6875,77.625 400.32683,76.71326 399.96617,75.80152 399.59457,74.86215 395.9424,65.61808 392.30359,56.37597 389,47 403.07568,33.85347 403.07568,33.85347 409.07812,28.67187 411.41105,26.64242 413.70511,24.57235 416,22.5 c 3.62024,-3.26704 7.26984,-6.49521 10.94922,-9.69531 2.31167,-2.03427 4.58609,-4.10691 6.86328,-6.17969 4.41937,-3.99653 8.98699,-7.76935 13.64453,-11.48438 C 450.12663,-7.1066 452.56653,-9.501 455,-12 Z" />
    <path
       style="fill:#b72c1c"
       inkscape:connector-curvature="0"
       id="path46"
       d="m 512,-62 c 5.45465,3.88529 10.42732,8.13155 15.36719,12.64844 2.62947,2.34858 5.32592,4.57635 8.07031,6.78906 4.96957,4.01388 9.67173,8.24655 14.34766,12.59375 2.05163,1.99547 2.05163,1.99547 4.21484,2.96875 -1.64551,3.45573 -3.58689,6.67756 -5.58984,9.9375 -0.51779,0.84293 -0.51779,0.84293 -1.04604,1.70288 -0.72788,1.18386 -1.45661,2.3672 -2.18614,3.55005 -1.11085,1.80207 -2.21782,3.60648 -3.32446,5.41113 -0.71006,1.15379 -1.42034,2.30744 -2.13086,3.46094 -0.96281,1.56428 -0.96281,1.56428 -1.94507,3.16016 C 537.19098,1.13918 536.60438,2.0557 536,3 c -0.38277,0.76425 -0.76554,1.52851 -1.15991,2.31592 -3.12943,2.8641 -6.9072,2.45792 -11.00415,2.56689 -0.90665,0.0275 -1.81329,0.0551 -2.74741,0.0835 -1.92135,0.0466 -3.84303,0.0811 -5.7648,0.10453 -2.92263,0.0537 -5.83056,0.20327 -8.74951,0.35498 C 493.38446,8.79769 493.38446,8.79769 489.28458,5.70676 485.92404,1.95188 484.02455,-2.43028 482,-7 c -0.98653,-1.59806 -2.00324,-3.17843 -3.06641,-4.72656 -0.8326,-1.29912 -1.66466,-2.59858 -2.49609,-3.89844 -0.43635,-0.66644 -0.8727,-1.33289 -1.32227,-2.01953 C 472.90101,-21.1275 472,-22.76806 472,-27 c 1.88492,-2.07071 3.71505,-3.85699 5.8125,-5.6875 0.59023,-0.52964 1.18046,-1.05929 1.78857,-1.60498 4.45291,-3.96465 9.04644,-7.74532 13.6958,-11.47705 3.86001,-3.18507 7.52577,-6.56758 11.19532,-9.96875 C 506.9228,-57.93037 509.42369,-59.98235 512,-62 Z" />
    <path
       style="fill:#d27d23"
       inkscape:connector-curvature="0"
       id="path48"
       d="m 708.4375,-598.875 c 7.1342,5.22014 10.5293,12.39904 12.14844,20.98047 2.86042,26.90413 -2.84299,48.03885 -19.55323,69.15308 -3.1212,3.82626 -6.41785,7.37466 -10.03271,10.74145 -0.66,0 -1.32,0 -2,0 -6.65644,-10.38196 -6.65644,-10.38196 -8,-16 0.92354,-3.52792 2.39721,-5.36199 4.70703,-8.16406 2.62687,-3.24891 4.3154,-6.4937 6.04297,-10.27344 0.2935,-0.63623 0.58701,-1.27247 0.8894,-1.92798 2.54786,-5.71206 4.19128,-11.48857 5.3606,-17.63452 0.34031,-1.76344 0.34031,-1.76344 0.6875,-3.5625 0.79376,-8.7314 0.93613,-14.77962 -3.6875,-22.4375 -4.16773,-0.62516 -6.49434,0.0237 -9.8125,2.4375 -1.41551,1.16398 -2.81067,2.35302 -4.1875,3.5625 -0.68965,0.58395 -1.3793,1.16789 -2.08984,1.76953 -7.32449,6.71522 -12.41372,15.06472 -17.72437,23.38037 -1.04376,1.62849 -2.11285,3.24069 -3.18579,4.8501 -3.03853,-1.40977 -5.59396,-3.0887 -8.25,-5.125 -0.70641,-0.53883 -1.41281,-1.07766 -2.14063,-1.63281 -0.53109,-0.40992 -1.06218,-0.81985 -1.60937,-1.24219 4.01291,-10.55245 10.98583,-19.28708 18,-28 0.66,-0.82887 1.32,-1.65773 2,-2.51172 10.52022,-12.55851 25.4103,-23.93582 42.4375,-18.36328 z" />
    <path
       style="fill:#d27d23"
       inkscape:connector-curvature="0"
       id="path50"
       d="M 334.51562,-598.85938 C 354.27504,-589.73283 368.04315,-570.7828 378,-552 c 0,0.66 0,1.32 0,2 -1.60938,1.4375 -1.60938,1.4375 -3.75,3 -1.04415,0.77343 -1.04415,0.77343 -2.10938,1.5625 -1.99164,1.33745 -3.9709,2.42105 -6.14062,3.4375 -0.3893,-0.64325 -0.7786,-1.28649 -1.17969,-1.94922 C 352.65395,-563.66543 352.65395,-563.66543 335,-578 c -3.20917,-0.25136 -3.20917,-0.25136 -6,0 -5.64293,8.81707 -5.03892,18.01603 -2.86622,27.97949 3.25976,13.40843 8.94265,24.81823 16.86622,36.02051 -2.64,5.28 -5.28001,10.56 -8,16 -2,0 -2,0 -3.33985,-1.25782 -1.90836,-2.2303 -3.79084,-4.47898 -5.66015,-6.74218 -0.42024,-0.49339 -0.84047,-0.98678 -1.27344,-1.49512 C 307.19517,-528.12997 301.28136,-549.06432 303,-576 c 1.18489,-8.32733 4.27998,-15.72285 10.625,-21.3125 6.21727,-4.41754 13.82074,-3.84066 20.89062,-1.54688 z" />
    <path
       style="fill:#974a16"
       inkscape:connector-curvature="0"
       id="path52"
       d="m 431,-354 c 1.66071,3.32143 -0.25179,6.55593 -1.35156,9.91797 -0.52518,1.65255 -1.04999,3.30523 -1.57447,4.95801 -0.27796,0.86758 -0.55592,1.73515 -0.84231,2.62902 -4.90082,15.34617 -9.45392,30.60171 -12.23166,46.495 -0.15259,0.87044 -0.30519,1.74088 -0.4624,2.63769 -1.98467,11.55062 -3.69988,22.97691 -3.67041,34.71778 -9.6e-4,0.8641 -0.002,1.7282 -0.003,2.61848 -6.8e-4,1.81769 10e-4,3.63537 0.005,5.45305 0.005,2.73598 5e-5,5.47179 -0.006,8.20777 -0.002,8.99782 0.16936,17.87531 1.02002,26.83911 C 412,-207 412,-207 411,-205 c -1.27832,11.88206 2.72888,21.74903 10,31 5.29056,6.44746 11.70532,10.37146 19.67969,12.82422 C 443,-160 443,-160 444.3125,-157.375 c 0.22687,0.78375 0.45375,1.5675 0.6875,2.375 -11.67541,-1.20066 -22.93936,-5.08354 -31,-14 -16.4588,-20.56458 -19.43487,-44.83062 -19.375,-70.3125 5.4e-4,-0.87568 10e-4,-1.75135 0.002,-2.65356 0.0427,-15.0131 1.18335,-29.32303 4.3734,-44.03394 0.20899,-0.99806 0.41798,-1.99611 0.6333,-3.02441 3.12366,-14.5958 7.68101,-28.49556 13.29248,-42.31836 0.98233,-2.42993 1.92086,-4.87275 2.85547,-7.32129 2.47591,-6.17676 4.5167,-10.63468 10.65625,-13.77344 2.62109,-0.99609 2.62109,-0.99609 4.5625,-1.5625 z" />
    <path
       style="fill:#984b16"
       inkscape:connector-curvature="0"
       id="path54"
       d="m 591,-354 c 11.50468,3.56097 11.50468,3.56097 14.23828,8.5 0.71647,1.48819 1.40613,2.98947 2.07422,4.5 0.37681,0.83177 0.75362,1.66354 1.14185,2.52051 9.41765,21.43798 14.90369,43.45225 18.54565,66.47949 0.1455,0.91233 0.29101,1.82467 0.44092,2.76465 4.60263,30.62307 5.00145,67.88041 -13.37842,94.17285 -1.32922,1.70722 -2.68163,3.39678 -4.0625,5.0625 -0.54269,0.66773 -1.08539,1.33547 -1.64453,2.02344 -6.16448,6.86942 -15.38155,11.14515 -24.35547,12.97656 -2.9375,0.125 -2.9375,0.125 -5,0 0.94517,-3.74853 1.71852,-4.8284 5.08203,-6.87891 1.23593,-0.57765 2.47986,-1.13845 3.73047,-1.68359 11.80045,-5.31452 18.32193,-13.55465 23.1875,-25.4375 1.57524,-5.47951 1.04913,-11.23076 0.96094,-16.875 -0.0116,-1.21816 -0.0116,-1.21816 -0.0234,-2.46094 -0.0116,-0.72751 -0.0232,-1.45503 -0.0352,-2.20459 C 612,-213 612,-213 612.48901,-216.21313 c 0.59005,-4.3728 0.70906,-8.6342 0.74927,-13.04078 0.01,-0.88542 0.0197,-1.77084 0.0298,-2.68309 0.35827,-40.72332 -4.77442,-80.26599 -21.38529,-117.8755 C 591,-352 591,-352 591,-354 Z" />
    <path
       style="fill:#081b2a"
       inkscape:connector-curvature="0"
       id="path56"
       d="m 643,-452 c 6.9036,3.4518 11.43513,9.02337 14.375,16.0625 3.17064,9.65784 2.91228,20.65377 -1.375,29.9375 -3.29217,5.74634 -6.86189,9.46009 -13,12 -5.78167,0.82595 -9.3127,0.0223 -14.10938,-3.32031 -6.6579,-5.91508 -9.53139,-13.22594 -10.10546,-21.94141 -0.27884,-10.31675 0.8579,-18.89942 7.55078,-27.04297 4.92562,-5.01812 9.74607,-6.57379 16.66406,-5.69531 z" />
    <path
       style="fill:#081b2b"
       inkscape:connector-curvature="0"
       id="path58"
       d="m 389,-452 c 7.54032,3.69624 12.26955,10.23978 15,18 2.32078,10.03494 1.25332,19.60478 -3,29 -3.52576,5.18927 -6.91696,9.06888 -13,11 -5.2641,0.47856 -8.57346,-0.0804 -13,-3 -6.62492,-5.79887 -9.69826,-13.39154 -10.41797,-22.06641 -0.48702,-9.95141 0.47642,-19.48182 7.46094,-27.1875 5.5611,-5.0141 9.44466,-6.63588 16.95703,-5.74609 z" />
    <path
       style="fill:#954616"
       inkscape:connector-curvature="0"
       id="path60"
       d="m 511,-177 c 3.01251,1.33096 4.83641,2.72528 7,5.1875 11.04054,11.30004 24.82705,14.11295 40,14.8125 -4.96357,9.25029 -13.85661,13.45665 -23.54468,16.49707 -4.88305,1.43616 -9.37816,2.38594 -14.45532,2.50293 -1.24137,0.0503 -2.48273,0.10055 -3.76172,0.15234 -18.69085,0.54152 -35.72882,-2.64264 -49.98047,-15.67187 C 465,-155 465,-155 465,-157 c 0.57331,-0.0647 1.14662,-0.12939 1.7373,-0.19605 16.78859,-1.96136 29.00019,-4.37856 41.2627,-16.80395 0.87979,-0.87785 0.87979,-0.87785 1.77734,-1.77344 0.40348,-0.40476 0.80696,-0.80953 1.22266,-1.22656 z" />
    <path
       style="fill:#48261b"
       inkscape:connector-curvature="0"
       id="path62"
       d="m 695,-579 c 5.2641,6.40228 5.52777,12.04572 5,20 -1.77376,12.25981 -5.29223,23.01394 -11,33.9375 -0.33218,0.63937 -0.66435,1.27875 -1.00659,1.9375 -1.93589,3.58537 -3.94784,6.41254 -6.99341,9.125 -2.5495,-2.35339 -4.65573,-4.8292 -6.6875,-7.625 -3.09497,-4.21041 -6.53132,-8.03895 -10.06641,-11.88281 -2.49683,-2.7704 -4.87346,-5.61501 -7.24609,-8.49219 24.92443,-38.83058 24.92443,-38.83058 38,-37 z" />
    <path
       style="fill:#49261a"
       inkscape:connector-curvature="0"
       id="path64"
       d="m 331.5625,-579.4375 c 5.02846,0.63999 7.70152,3.14874 11.4375,6.4375 0.68965,0.59555 1.3793,1.19109 2.08984,1.80469 8.89383,8.26659 16.80247,19.1634 21.91016,30.19531 -0.84562,0.66 -1.69125,1.32 -2.5625,2 -6.70423,5.62592 -11.85507,12.71719 -17.06152,19.69531 C 344.212,-515.106 344.212,-515.106 342,-514 c -6.71078,-9.54423 -11.47903,-18.87373 -15,-30 -0.34031,-1.05188 -0.68063,-2.10375 -1.03125,-3.1875 -2.52063,-8.77554 -4.18829,-19.14403 -0.0312,-27.625 2.66573,-4.11976 2.66573,-4.11976 5.625,-4.625 z" />
    <path
       style="fill:#3f231c"
       inkscape:connector-curvature="0"
       id="path66"
       d="m 561,-334 c 7.51084,5.36801 13.72853,11.86982 15.39844,21.23437 0.21332,4.36492 -0.6339,7.40869 -3.39844,10.76563 -2.89268,1.76157 -5.12748,2.29517 -8.5,2.3125 -0.75281,0.0168 -1.50563,0.0335 -2.28125,0.0508 C 560,-300 560,-300 558.04687,-301.49219 554.21994,-304.31127 549.53889,-303.59888 545,-303 c -2.18209,0.87511 -4.11814,1.92461 -6.15625,3.08984 -3.10346,1.53201 -5.48832,1.49091 -8.84375,0.91016 -4.17975,-4.17975 -5.1975,-7.21091 -5.375,-13 0.086,-7.78954 2.00789,-13.34777 7.3125,-19.10156 9.10796,-8.38346 18.33506,-8.90128 29.0625,-2.89844 z" />
    <path
       style="fill:#3f241c"
       inkscape:connector-curvature="0"
       id="path68"
       d="m 485.1875,-336.5 c 6.3054,3.62496 11.18023,9.41218 13.37891,16.36328 1.42677,7.03102 0.84223,12.84384 -2.56641,19.13672 -2,2 -2,2 -5.0625,2.375 -3.60036,-0.34289 -5.09612,-0.80989 -8.1875,-2.375 -5.10197,-2.4591 -10.16448,-2.97637 -15.75,-2 -1.34811,0.97998 -2.68255,1.97917 -4,3 -3.56123,0.64686 -6.96137,0.35532 -10.375,-0.8125 -2.55302,-1.86567 -3.54238,-3.66558 -4.03125,-6.75391 -0.28593,-9.13776 2.08695,-14.80322 8.30469,-21.46875 8.08519,-7.52593 17.39688,-12.18408 28.28906,-7.46484 z" />
    <path
       style="fill:#ebcb8f"
       inkscape:connector-curvature="0"
       id="path78"
       d="m 455,-12 c 4.03712,1.34571 4.89393,3.86667 6.75,7.4375 0.32871,0.59877 0.65742,1.19754 0.99609,1.81445 C 463.56748,-1.20058 464.29156,0.39767 465,2 c -1.36797,2.73595 -3.46917,3.46285 -6.06982,4.89795 -2.9663,1.69363 -5.72751,3.66637 -8.49268,5.66455 -0.59861,0.43055 -1.19722,0.86109 -1.81396,1.30469 -8.76647,6.35563 -17.22737,13.08452 -25.49854,20.07031 -4.72299,3.96757 -9.56561,7.73642 -14.5,11.4375 -0.66628,0.50008 -1.33257,1.00015 -2.01904,1.51538 C 404.74699,48.27421 402.87816,49.64236 401,51 c -0.56235,0.40895 -1.12471,0.81791 -1.7041,1.23926 C 396.61489,54.12075 395.3552,55 392,55 391.01,52.36 390.02,49.72 389,47 403.07568,33.85347 403.07568,33.85347 409.07812,28.67187 411.41105,26.64242 413.70511,24.57235 416,22.5 c 3.62024,-3.26704 7.26984,-6.49521 10.94922,-9.69531 2.31167,-2.03427 4.58609,-4.10691 6.86328,-6.17969 4.41937,-3.99653 8.98699,-7.76935 13.64453,-11.48438 C 450.12663,-7.1066 452.56653,-9.501 455,-12 Z" />
    <path
       style="fill:#ebca8e"
       inkscape:connector-curvature="0"
       id="path80"
       d="m 567,-12 c 3.86101,2.14501 6.91139,4.60325 10.125,7.625 3.65888,3.38495 7.36014,6.63357 11.25,9.75 5.43391,4.38444 10.52326,9.08 15.625,13.83984 2.96144,2.76112 5.98986,5.43571 9.05078,8.08594 4.03018,3.51328 7.9806,7.11677 11.94922,10.69922 1.87474,1.68778 3.74974,3.37529 5.625,5.0625 1.45833,1.3125 2.91667,2.625 4.375,3.9375 -0.99,2.97 -1.98,5.94 -3,9 -4.1993,-1.04983 -5.63605,-2.08056 -8.875,-4.8125 -0.97066,-0.81469 -1.94133,-1.62937 -2.94141,-2.46875 C 619.12167,47.81335 618.06049,46.90707 617,46 616.45489,45.53594 615.90977,45.07187 615.34815,44.59375 610.05185,40.08339 604.78098,35.54373 599.52344,30.98828 587.3924,20.49926 574.90717,10.51814 562,1 c 0.64167,-5.68049 1.63311,-8.54702 5,-13 z" />
    <path
       style="fill:#4287ac"
       inkscape:connector-curvature="0"
       id="path82"
       d="m 678,-467 c 7.27602,0.66146 14.14389,1.5247 19.8125,6.4375 7.126,9.81366 7.36901,22.63095 7.375,34.1875 0.0122,1.22074 0.0245,2.44148 0.0371,3.69922 0.012,7.45091 -0.57633,14.40467 -2.22461,21.67578 -0.66,0 -1.32,0 -2,0 -0.43699,-1.47872 -0.43699,-1.47872 -0.88281,-2.98731 -7.58608,-25.80231 -7.58608,-25.80231 -17.21436,-50.89257 C 681.1952,-458.8899 679.60482,-462.94798 678,-467 Z" />
    <path
       style="fill:#4287ac"
       inkscape:connector-curvature="0"
       id="path84"
       d="m 346,-467 c -0.58648,3.20976 -1.88659,5.83585 -3.37402,8.71924 -4.7357,9.312 -8.09741,19.01328 -11.37598,28.90576 -0.23193,0.69548 -0.46386,1.39096 -0.70282,2.10751 -3.21244,9.67018 -6.02744,19.39346 -8.54718,29.26749 -0.33,0 -0.66,0 -1,0 -6.04183,-44.66641 -6.04183,-44.66641 4.69922,-61.30078 3.93525,-5.14065 7.73058,-6.29992 13.89844,-7.40235 C 342,-467 342,-467 346,-467 Z" />
    <path
       style="fill:#081d2f"
       inkscape:connector-curvature="0"
       id="path88"
       d="m 555.8125,-320.9375 c 5.38806,4.77228 5.60824,10.98872 6.07422,17.77734 0.0561,1.06928 0.0561,1.06928 0.11328,2.16016 -2.16874,-0.50604 -3.99968,-0.99984 -6,-2 -6.62357,-0.6802 -11.38866,-0.20761 -17.15625,3.08984 -3.10346,1.53201 -5.48832,1.49091 -8.84375,0.91016 -2.5,-2.3125 -2.5,-2.3125 -4,-5 0.495,-1.485 0.495,-1.485 1,-3 0.33,0.66 0.66,1.32 1,2 0.36352,-0.66387 0.72703,-1.32773 1.10156,-2.01172 3.65416,-6.41821 6.72735,-10.68321 13.27344,-14.30078 4.71414,-1.23466 8.85197,-1.35731 13.4375,0.375 z" />
    <path
       style="fill:#071c2f"
       inkscape:connector-curvature="0"
       id="path92"
       d="m 478,-322 c 8.16892,3.26757 12.47734,8.10815 16,16 0.875,3.5 0.875,3.5 1,6 -1,1 -1,1 -4,1.3125 -3.25045,-0.0198 -5.36839,-0.84578 -8.25,-2.3125 -5.10197,-2.4591 -10.16448,-2.97637 -15.75,-2 -1.35605,0.96897 -2.69221,1.96682 -4,3 -3.25,0.1875 -3.25,0.1875 -6,0 0,-0.33 0,-0.66 0,-1 3.465,-0.495 3.465,-0.495 7,-1 -0.0464,-0.79664 -0.0928,-1.59328 -0.14063,-2.41406 -0.3643,-10.69488 -0.3643,-10.69488 4.14063,-15.58594 3.74184,-2.49456 5.56243,-2.37607 10,-2 z" />
    <path
       style="fill:#b15915"
       inkscape:connector-curvature="0"
       id="path100"
       d="m 411,-189 c 2.18851,2.79821 3.96354,5.64786 5.6875,8.75 5.7702,9.62645 13.19367,15.76102 23.98828,19.07031 C 443,-160 443,-160 444.3125,-157.375 c 0.22687,0.78375 0.45375,1.5675 0.6875,2.375 -1.89694,-0.28439 -3.79252,-0.57784 -5.6875,-0.875 -1.05574,-0.16242 -2.11148,-0.32484 -3.19922,-0.49219 -2.955,-0.60064 -5.43859,-1.23964 -8.11328,-2.63281 -0.40262,-1.64402 -0.79863,-3.29008 -1.15234,-4.94531 -1.53055,-3.70998 -4.71654,-6.07214 -7.58594,-8.78907 -4.70644,-4.71457 -7.755,-9.5094 -8.26172,-16.26562 z" />
    <path
       style="fill:#142330"
       inkscape:connector-curvature="0"
       id="path102"
       d="m 263,-265 c 0.99,0 1.98,0 3,0 0,10.89 0,21.78 0,33 -0.99,-0.33 -1.98,-0.66 -3,-1 0,-10.56 0,-21.12 0,-32 z" />
    <path
       style="fill:#020e34"
       inkscape:connector-curvature="0"
       id="path104"
       d="m 512.4375,-453.125 c 0.82726,-0.005 1.65451,-0.009 2.50684,-0.0137 5.10468,0.0123 10.00291,0.40773 15.05566,1.13867 0,0.33 0,0.66 0,1 -1.03294,0.0251 -2.06588,0.0501 -3.13013,0.0759 -3.88226,0.0951 -7.76438,0.19509 -11.64648,0.29638 -1.67087,0.0429 -3.34177,0.0846 -5.0127,0.125 -9.10339,0.22077 -18.15418,0.4726 -27.21069,1.50275 1.32,-0.33 2.64,-0.66 4,-1 0,-0.66 0,-1.32 0,-2 8.48558,-0.71999 16.9213,-1.10596 25.4375,-1.125 z" />
    <path
       style="fill:#d1f2f8"
       inkscape:connector-curvature="0"
       id="path108"
       d="m 647.5,-440.25 c 2.5,0.25 2.5,0.25 4.5,2.25 0.25,2.5 0.25,2.5 0,5 -2,2 -2,2 -4.5,2.25 C 645,-431 645,-431 643,-433 c -0.25,-2.5 -0.25,-2.5 0,-5 2,-2 2,-2 4.5,-2.25 z" />
    <path
       style="fill:#d0f0f5"
       inkscape:connector-curvature="0"
       id="path112"
       d="m 393.5,-440.3125 c 1.2375,0.15469 1.2375,0.15469 2.5,0.3125 2,3 2,3 1.6875,5.625 C 397,-432 397,-432 396,-431 c -2.4375,0.1875 -2.4375,0.1875 -5,0 -2,-2 -2,-2 -2.25,-4.5 0.34952,-3.49524 1.27442,-4.37805 4.75,-4.8125 z" />
    <path
       style="fill:#0f1434"
       inkscape:connector-curvature="0"
       id="path116"
       d="m 720,-548 c 0.87783,2.95514 1.09432,5.36941 0.8125,8.4375 -0.0831,1.11182 -0.0831,1.11182 -0.16797,2.24609 -0.8609,3.09403 -2.60582,4.84792 -4.64453,7.31641 -1.82722,3.27376 -3.51906,6.59998 -5.21875,9.94141 -1.67157,2.87026 -3.32264,4.85339 -5.78125,7.05859 1.29812,-3.52821 2.92341,-6.74057 4.76758,-10.01343 4.52984,-8.0701 7.61405,-16.11182 10.23242,-24.98657 z" />
    <path
       style="fill:#0f1721"
       inkscape:connector-curvature="0"
       id="path118"
       d="m 595,146 c 0.66,0.99 1.32,1.98 2,3 -0.33,0.66 -0.66,1.32 -1,2 -0.66,0 -1.32,0 -2,0 -0.14437,1.11375 -0.28875,2.2275 -0.4375,3.375 C 593,158 593,158 592,160 c -0.66,0 -1.32,0 -2,0 -0.18176,0.58008 -0.36352,1.16016 -0.55078,1.75781 C 587.95819,166.3915 586.31666,170.6976 584,175 c -1.30086,-3.9026 -0.38722,-5.0228 1.27344,-8.7266 0.495,-1.1137 0.99,-2.2275 1.5,-3.37496 0.52851,-1.16274 1.05703,-2.32547 1.60156,-3.52344 0.52078,-1.17047 1.04156,-2.34094 1.57812,-3.54688 C 593.83036,147.16964 593.83036,147.16964 595,146 Z" />
    <path
       style="fill:#07121c"
       inkscape:connector-curvature="0"
       id="path120"
       d="m 702,-398 c 0.33,0 0.66,0 1,0 -1.64516,13.16129 -1.64516,13.16129 -4.75,17.375 -2.6384,1.90551 -5.12338,2.77228 -8.25,3.625 0.88688,-0.92813 1.77375,-1.85625 2.6875,-2.8125 4.55086,-5.27339 7.12648,-11.62943 9.3125,-18.1875 z" />
    <path
       style="fill:#e48a1f"
       inkscape:connector-curvature="0"
       id="path122"
       d="m 738,-260 c 0.33,0 0.66,0 1,0 0.0495,4.05676 0.0858,8.11341 0.10986,12.17041 0.01,1.37926 0.0237,2.7585 0.041,4.13769 0.0243,1.98575 0.0345,3.97165 0.0444,5.95752 0.0105,1.194 0.021,2.38799 0.0317,3.61817 -0.2167,2.97419 -0.66519,4.61939 -2.22705,7.11621 -1.68269,-3.36538 -1.42636,-7.31505 -0.51196,-10.92871 0.57163,-2.31272 0.72161,-4.45781 0.82837,-6.83692 0.0419,-0.88945 0.0838,-1.7789 0.12695,-2.69531 0.0393,-0.92039 0.0786,-1.84078 0.11914,-2.78906 0.0432,-0.93586 0.0864,-1.87172 0.13086,-2.83594 0.10582,-2.30455 0.20791,-4.6092 0.30664,-6.91406 z" />
    <path
       style="fill:#af5a16"
       inkscape:connector-curvature="0"
       id="path124"
       d="m 592,-165 c 0.33,0.66 0.66,1.32 1,2 -0.66,0 -1.32,0 -2,0 0,0.66 0,1.32 0,2 -1.8125,2.125 -1.8125,2.125 -4,4 -0.99,0 -1.98,0 -3,0 0,0.66 0,1.32 0,2 -1.65,0 -3.3,0 -5,0 0.94751,-3.39619 1.53451,-4.71693 4.60156,-6.58203 0.99774,-0.40606 1.99547,-0.81211 3.02344,-1.23047 1.00289,-0.41895 2.00578,-0.83789 3.03906,-1.26953 1.15629,-0.4544 1.15629,-0.4544 2.33594,-0.91797 z" />
    <path
       style="fill:#09143b"
       inkscape:connector-curvature="0"
       id="path126"
       d="m 574,-373 c 3.35007,1.46377 5.61315,3.36145 8.25,5.875 4.71556,4.26572 9.26319,7.83443 15.75,8.375 0.66,-0.0825 1.32,-0.165 2,-0.25 0,0.99 0,1.98 0,3 -10.92352,-1.40742 -18.99643,-7.78593 -26,-16 0,-0.33 0,-0.66 0,-1 z" />
    <path
       style="fill:#f0ecd0"
       inkscape:connector-curvature="0"
       id="path128"
       d="m 447,148 c 0.33,0 0.66,0 1,0 -0.61723,9.567 -2.82013,18.6925 -5,28 -2.56546,-2.5655 -2.54046,-4.4769 -3,-8 0.66,0.33 1.32,0.66 2,1 1.65,-6.93 3.3,-13.86 5,-21 z" />
    <path
       style="fill:#0d1c28"
       inkscape:connector-curvature="0"
       id="path130"
       d="m 304,-618 c 0.66,0.99 1.32,1.98 2,3 -1.24839,1.10598 -2.49879,2.2097 -3.75,3.3125 -0.69609,0.61488 -1.39219,1.22977 -2.10938,1.86328 -1.99177,1.69737 -4.02961,3.279 -6.14062,4.82422 0,-4 0,-4 1.42578,-5.85156 0.62262,-0.58524 1.24524,-1.17047 1.88672,-1.77344 0.61488,-0.59039 1.22977,-1.18078 1.86328,-1.78906 C 301,-616 301,-616 304,-618 Z" />
    <path
       style="fill:#1b1c30"
       inkscape:connector-curvature="0"
       id="path132"
       d="m 504,-88 c 11.22,0 22.44,0 34,0 0,0.33 0,0.66 0,1 -2.97852,0.29297 -2.97852,0.29297 -5.95703,0.58594 -2.34285,0.34071 -2.34285,0.34071 -5.04297,2.41406 0,-0.66 0,-1.32 0,-2 -11.385,-0.495 -11.385,-0.495 -23,-1 0,-0.33 0,-0.66 0,-1 z" />
    <path
       style="fill:#040d16"
       inkscape:connector-curvature="0"
       id="path134"
       d="m 594,-469 c 6.93,0 13.86,0 21,0 0,0.33 0,0.66 0,1 -4.06191,0.50489 -8.12461,1.00305 -12.1875,1.5 -1.72573,0.21463 -1.72573,0.21463 -3.48633,0.43359 -1.66772,0.20303 -1.66772,0.20303 -3.36914,0.41016 -1.53177,0.18853 -1.53177,0.18853 -3.09448,0.38086 -2.64396,0.25436 -5.20877,0.32655 -7.86255,0.27539 3.13498,-1.85777 5.37471,-2.2014 9,-2 0,-0.66 0,-1.32 0,-2 z" />
    <path
       style="fill:#468eb3"
       inkscape:connector-curvature="0"
       id="path136"
       d="m 703,-418 c 0.33,0 0.66,0 1,0 0.027,2.27077 0.0464,4.54163 0.0625,6.8125 0.0116,1.26457 0.0232,2.52914 0.0352,3.83203 C 704,-404 704,-404 703,-401 c -0.66,0 -1.32,0 -2,0 -2.42857,-6.28571 -2.42857,-6.28571 -1,-10 0.66,0 1.32,0 2,0 0.33,-2.31 0.66,-4.62 1,-7 z" />
    <path
       style="fill:#f3ebcc"
       inkscape:connector-curvature="0"
       id="path138"
       d="m 541,-67 c 2.97,0 5.94,0 9,0 -0.66,0.66 -1.32,1.32 -2,2 2.475,3.465 2.475,3.465 5,7 -0.33,0.66 -0.66,1.32 -1,2 -1.83635,-1.64258 -3.66914,-3.28883 -5.5,-4.9375 -0.52465,-0.46857 -1.0493,-0.93715 -1.58984,-1.41992 C 543.58783,-63.55095 542.29166,-64.77334 541,-66 c 0,-0.33 0,-0.66 0,-1 z" />
    <path
       style="fill:#f5f0d4"
       inkscape:connector-curvature="0"
       id="path140"
       d="m 693,-120 c 1.34734,4.04201 0.0258,6.76604 -1.3125,10.625 -0.22623,0.69352 -0.45246,1.38703 -0.68555,2.10156 -1.74314,5.14403 -1.74314,5.14403 -4.00195,6.27344 0.21656,-0.78246 0.43313,-1.56492 0.65625,-2.37109 0.27844,-1.01192 0.55687,-2.02383 0.84375,-3.06641 0.27844,-1.00934 0.55687,-2.01867 0.84375,-3.05859 0.6985,-2.23372 0.6985,-2.23372 0.65625,-3.50391 -1.65,0 -3.3,0 -5,0 2.51622,-2.60608 5.05134,-4.89382 8,-7 z" />
    <path
       style="fill:#091825"
       inkscape:connector-curvature="0"
       id="path142"
       d="m 663,-608 c 0.99,0 1.98,0 3,0 -1.35852,3.08694 -2.84511,5.08642 -5.375,7.3125 -0.58523,0.53238 -1.17047,1.06477 -1.77344,1.61328 C 657,-598 657,-598 654.77344,-598.33203 654.1882,-598.55246 653.60297,-598.77289 653,-599 c 0.5543,-0.48211 1.10859,-0.96422 1.67969,-1.46094 0.72445,-0.63164 1.4489,-1.26328 2.19531,-1.91406 0.7193,-0.62648 1.43859,-1.25297 2.17969,-1.89844 1.35297,-1.20083 2.66614,-2.44739 3.94531,-3.72656 z" />
    <path
       style="fill:#122837"
       inkscape:connector-curvature="0"
       id="path144"
       d="m 193,190 c 2.06277,0.1419 4.12521,0.2887 6.1875,0.4375 1.72283,0.1218 1.72283,0.1218 3.48047,0.2461 2.84801,0.2704 5.54413,0.6916 8.33203,1.3164 0,0.33 0,0.66 0,1 -11.52164,1.3326 -11.52164,1.3326 -17,0 -0.33,-0.99 -0.66,-1.98 -1,-3 z" />
    <path
       style="fill:#152e3f"
       inkscape:connector-curvature="0"
       id="path146"
       d="m 323,204 c 8.0635,-0.1287 15.97498,0.2032 24,1 0,0.33 0,0.66 0,1 -3.62371,0.2541 -7.24869,0.4741 -10.875,0.6875 -1.54881,0.1092 -1.54881,0.1092 -3.12891,0.2207 -1.4792,0.082 -1.4792,0.082 -2.98828,0.166 -0.9112,0.058 -1.82241,0.1152 -2.76123,0.1746 -0.74137,-0.082 -1.48274,-0.1642 -2.24658,-0.2488 -0.66,-0.99 -1.32,-1.98 -2,-3 z" />
    <path
       style="fill:#ecda9d"
       inkscape:connector-curvature="0"
       id="path148"
       d="m 567,-12 c 3.536,1.91135 5.78973,3.62643 8,7 -0.5775,-0.35063 -1.155,-0.70125 -1.75,-1.0625 -2.14329,-1.08811 -2.14329,-1.08811 -4.1875,-0.8125 -2.76551,1.17325 -4.79762,2.92468 -7.0625,4.875 1.15585,-3.91212 2.35535,-6.8745 5,-10 z" />
    <path
       style="fill:#a9dbf2"
       inkscape:connector-curvature="0"
       id="path152"
       d="m 392,-439 c 2.0625,0.4375 2.0625,0.4375 4,1 0,1.65 0,3.3 0,5 -1.875,0.625 -1.875,0.625 -4,1 -0.66,-0.66 -1.32,-1.32 -2,-2 0.53571,-3.53571 0.53571,-3.53571 2,-5 z" />
    <path
       style="fill:#b25c17"
       inkscape:connector-curvature="0"
       id="path154"
       d="M 441.19141,-161.03516 C 443,-160 443,-160 444.5,-157.3125 c 0.165,0.76312 0.33,1.52625 0.5,2.3125 -0.66,0 -1.32,0 -2,0 0,-0.66 0,-1.32 0,-2 -2.01265,-0.67089 -4.03389,-1.3165 -6.0625,-1.9375 C 434,-160 434,-160 432,-162 c 3.84854,-1.28285 5.53096,-0.47919 9.19141,0.96484 z" />
    <path
       style="fill:#252029"
       inkscape:connector-curvature="0"
       id="path156"
       d="m 464,-307 c 0.66,0 1.32,0 2,0 0,0.66 0,1.32 0,2 2.97,0 5.94,0 9,0 0,0.33 0,0.66 0,1 -1.85625,0.15469 -1.85625,0.15469 -3.75,0.3125 -3.66447,0.43717 -5.32551,1.44539 -8.25,3.6875 -3.25,0.1875 -3.25,0.1875 -6,0 0,-0.33 0,-0.66 0,-1 3.465,-0.495 3.465,-0.495 7,-1 0,-1.65 0,-3.3 0,-5 z" />
    <path
       style="fill:#5eb0d4"
       inkscape:connector-curvature="0"
       id="path158"
       d="m 384,-373 c 4.95,0 9.9,0 15,0 -3,3 -3,3 -5.15625,3.39844 -1.16016,-0.0116 -1.16016,-0.0116 -2.34375,-0.0234 -0.77344,0.008 -1.54688,0.0155 -2.34375,0.0234 C 387,-370 387,-370 384,-373 Z" />
    <path
       style="fill:#10193e"
       inkscape:connector-curvature="0"
       id="path160"
       d="m 612,-207 c 0.33,0 0.66,0 1,0 0,3.3 0,6.6 0,10 -0.66,-0.33 -1.32,-0.66 -2,-1 -0.99,0.99 -1.98,1.98 -3,3 0.47506,-1.81358 0.95516,-3.62584 1.4375,-5.4375 0.26684,-1.00934 0.53367,-2.01867 0.80859,-3.05859 C 611,-206 611,-206 612,-207 Z" />
    <path
       style="fill:#aadcf0"
       inkscape:connector-curvature="0"
       id="path162"
       d="m 645,-440 c 2.475,0.99 2.475,0.99 5,2 -0.35063,0.61875 -0.70125,1.2375 -1.0625,1.875 -0.30938,0.70125 -0.61875,1.4025 -0.9375,2.125 0.33,0.66 0.66,1.32 1,2 -1.32,-0.33 -2.64,-0.66 -4,-1 0,-2.31 0,-4.62 0,-7 z" />
    <path
       style="fill:#0d1924"
       inkscape:connector-curvature="0"
       id="path164"
       d="m 640,-584 c 0.66,0 1.32,0 2,0 0.33,0.99 0.66,1.98 1,3 -0.78375,0.59812 -1.5675,1.19625 -2.375,1.8125 -2.77074,2.09835 -2.77074,2.09835 -4.625,5.1875 -0.66,-0.33 -1.32,-0.66 -2,-1 0.94983,-1.5054 1.91012,-3.0042 2.875,-4.5 0.53367,-0.83531 1.06734,-1.67063 1.61719,-2.53125 0.74636,-0.97453 0.74636,-0.97453 1.50781,-1.96875 z" />
    <path
       style="fill:#9d5219"
       inkscape:connector-curvature="0"
       id="path166"
       d="m 429,-160 c 1.41703,0.14231 2.83361,0.28901 4.25,0.4375 1.18336,0.12182 1.18336,0.12182 2.39062,0.24609 2.18303,0.29276 4.2367,0.73705 6.35938,1.31641 0,0.99 0,1.98 0,3 -1.98147,-0.4483 -3.96014,-0.90892 -5.9375,-1.375 -1.10215,-0.25523 -2.2043,-0.51047 -3.33984,-0.77344 -0.89848,-0.28101 -1.79696,-0.56203 -2.72266,-0.85156 -0.33,-0.66 -0.66,-1.32 -1,-2 z" />
    <path
       style="fill:#c27724"
       inkscape:connector-curvature="0"
       id="path168"
       d="m 355,-492 c 3.96,0.33 7.92,0.66 12,1 0,0.33 0,0.66 0,1 -1.65,0.33 -3.3,0.66 -5,1 0,0.33 0,0.66 0,1 -2.64,0 -5.28,0 -8,0 0.33,-1.32 0.66,-2.64 1,-4 z" />
    <path
       style="fill:#c27625"
       inkscape:connector-curvature="0"
       id="path170"
       d="m 472,-558 c 2.80435,-0.0563 5.35147,0.0419 8.125,0.3125 1.13115,0.0919 1.13115,0.0919 2.28516,0.18555 1.86447,0.1534 3.72736,0.32588 5.58984,0.50195 0,0.33 0,0.66 0,1 -5.94,0.33 -11.88,0.66 -18,1 0.66,-0.99 1.32,-1.98 2,-3 z" />
    <path
       style="fill:#132434"
       inkscape:connector-curvature="0"
       id="path172"
       d="m 412,-200 c 2.02457,1.93255 3.42106,3.63159 5,6 -3.1335,1.0445 -3.98968,0.93424 -7,0 0.50604,-2.16874 0.99984,-3.99968 2,-6 z" />
    <path
       style="fill:#112a3c"
       inkscape:connector-curvature="0"
       id="path174"
       d="m 657,-371 c 2.31,0 4.62,0 7,0 0,0.99 0,1.98 0,3 -3.96,0 -7.92,0 -12,0 0,-0.33 0,-0.66 0,-1 1.65,-0.33 3.3,-0.66 5,-1 0,-0.33 0,-0.66 0,-1 z" />
    <path
       style="fill:#c07625"
       inkscape:connector-curvature="0"
       id="path178"
       d="m 489,-91 c 6.625,-0.25 6.625,-0.25 10,2 -3.21451,1.60726 -6.43613,1.05748 -10,1 0,-0.99 0,-1.98 0,-3 z" />
    <path
       style="fill:#f0e7cb"
       inkscape:connector-curvature="0"
       id="path180"
       d="m 329,-120 c 3.65317,1.24977 4.78066,1.67099 7,5 -0.66,0 -1.32,0 -2,0 -0.33,0.66 -0.66,1.32 -1,2 -2.50038,-2.17424 -3.43629,-3.73046 -4,-7 z" />
    <path
       style="fill:#af5514"
       inkscape:connector-curvature="0"
       id="path182"
       d="m 605,-177 c 0.66,0.99 1.32,1.98 2,3 -2.97,2.475 -2.97,2.475 -6,5 -0.66,-0.33 -1.32,-0.66 -2,-1 1.98,-2.31 3.96,-4.62 6,-7 z" />
    <path
       style="fill:#c37824"
       inkscape:connector-curvature="0"
       id="path184"
       d="m 736,-268 c 0.99,0.33 1.98,0.66 3,1 0.25,6.625 0.25,6.625 -2,10 -1.28318,-3.84954 -1.06644,-6.94738 -1,-11 z" />
    <path
       style="fill:#162631"
       inkscape:connector-curvature="0"
       id="path186"
       d="m 750,-319 c 0.99,0.33 1.98,0.66 3,1 0.33,2.64 0.66,5.28 1,8 -0.99,-0.33 -1.98,-0.66 -3,-1 -0.33,-2.64 -0.66,-5.28 -1,-8 z" />
    <path
       style="fill:#ad4d10"
       inkscape:connector-curvature="0"
       id="path188"
       d="m 465,-157 c 3.96,0 7.92,0 12,0 0,0.33 0,0.66 0,1 -1.62319,0.36237 -3.24864,0.71465 -4.875,1.0625 -0.90492,0.19723 -1.80984,0.39445 -2.74219,0.59766 C 467,-154 467,-154 465,-155 c 0,-0.66 0,-1.32 0,-2 z" />
    <path
       style="fill:#0d0f28"
       inkscape:connector-curvature="0"
       id="path190"
       d="m 526,-307 c 1.68763,1.64544 3.35403,3.31289 5,5 0,0.33 0,0.66 0,1 1.65,0.33 3.3,0.66 5,1 0,0.33 0,0.66 0,1 -2.75,0.3125 -2.75,0.3125 -6,0 -2.375,-2.3125 -2.375,-2.3125 -4,-5 0,-0.99 0,-1.98 0,-3 z" />
    <path
       style="fill:#8e4313"
       inkscape:connector-curvature="0"
       id="path192"
       d="m 591,-354 c 5.75,1.75 5.75,1.75 8,4 -1.65,-0.33 -3.3,-0.66 -5,-1 0.33,1.65 0.66,3.3 1,5 -2.89932,-2.39509 -3.50168,-4.31245 -4,-8 z" />
    <path
       style="fill:#112839"
       inkscape:connector-curvature="0"
       id="path194"
       d="m 635,-397 c 2.64,0 5.28,0 8,0 0,0.99 0,1.98 0,3 -2.64,0 -5.28,0 -8,0 0,-0.99 0,-1.98 0,-3 z" />
    <path
       style="fill:#f0e9cd"
       inkscape:connector-curvature="0"
       id="path196"
       d="m 582,168 c 0.99,0.33 1.98,0.66 3,1 -0.99,1.98 -1.98,3.96 -3,6 -2,-3.75 -2,-3.75 -2,-6 0.66,-0.33 1.32,-0.66 2,-1 z" />
    <path
       style="fill:#1a2b38"
       inkscape:connector-curvature="0"
       id="path198"
       d="m 266,-278 c 0.33,0 0.66,0 1,0 0.19531,6.05469 0.19531,6.05469 0,8 -0.66,0.66 -1.32,1.32 -2,2 -1.38125,-2.7625 -1.19079,-4.94731 -1,-8 0.66,-0.66 1.32,-1.32 2,-2 z" />
    <path
       style="fill:#bae8f7"
       inkscape:connector-curvature="0"
       id="path200"
       d="m 646,-440 c 2.475,0.495 2.475,0.495 5,1 0.33,0.99 0.66,1.98 1,3 -0.99,1.485 -0.99,1.485 -2,3 -0.99,-0.33 -1.98,-0.66 -3,-1 0.66,-1.32 1.32,-2.64 2,-4 -0.99,-0.66 -1.98,-1.32 -3,-2 z" />
    <path
       style="fill:#0b102f"
       inkscape:connector-curvature="0"
       id="path202"
       d="m 487,-452 c 1.98,0 3.96,0 6,0 0.33,0.66 0.66,1.32 1,2 -3.63,0.33 -7.26,0.66 -11,1 1.32,-0.33 2.64,-0.66 4,-1 0,-0.66 0,-1.32 0,-2 z" />
    <path
       style="fill:#08101a"
       inkscape:connector-curvature="0"
       id="path204"
       d="m 425,-79 c 2.97,0 5.94,0 9,0 0,0.66 0,1.32 0,2 0.66,0.33 1.32,0.66 2,1 -1.45923,-0.1141 -2.91741,-0.24166 -4.375,-0.375 -1.21816,-0.10441 -1.21816,-0.10441 -2.46094,-0.21094 C 427,-77 427,-77 425,-79 Z" />
    <path
       style="fill:#0f1922"
       inkscape:connector-curvature="0"
       id="path206"
       d="m 272,-321 c 0.66,0.66 1.32,1.32 2,2 -0.32971,3.29715 -0.62268,4.62268 -3,7 -0.125,-6.75 -0.125,-6.75 1,-9 z" />
    <path
       style="fill:#5ca9ce"
       inkscape:connector-curvature="0"
       id="path208"
       d="m 674,-468 c 0.66,0.99 1.32,1.98 2,3 -6.05469,0.19531 -6.05469,0.19531 -8,0 -0.66,-0.66 -1.32,-1.32 -2,-2 2.78863,-1.39432 4.92079,-1.2566 8,-1 z" />
    <path
       style="fill:#152737"
       inkscape:connector-curvature="0"
       id="path210"
       d="m 432,-22 c 0.99,0.66 1.98,1.32 3,2 -1.65,1.65 -3.3,3.3 -5,5 -0.66,-0.33 -1.32,-0.66 -2,-1 1.32,-1.98 2.64,-3.96 4,-6 z" />
  </g>
</svg>
